<?xml version="1.0" standalone="no"?>
<!DOCTYPE svg PUBLIC "-//W3C//DTD SVG 1.1//EN" "http://www.w3.org/Graphics/SVG/1.1/DTD/svg11.dtd" >
<!--
2016-6-28: Created with FontForge (http://fontforge.org)
-->
<svg xmlns="http://www.w3.org/2000/svg" xmlns:xlink="http://www.w3.org/1999/xlink" version="1.1">
<metadata>
Created by FontForge 20141024 at Tue Jun 28 12:09:19 2016
 By Michael Santelia
Copyright (c) 2016, Michael Santelia
</metadata>
<defs>
<font id="icons-ibm-v7" horiz-adv-x="512" >
  <font-face 
    font-family="icons-ibm-v7"
    font-weight="400"
    font-stretch="normal"
    units-per-em="512"
    panose-1="2 0 5 3 0 0 0 0 0 0"
    ascent="448"
    descent="-64"
    bbox="-1.02441 -20.9922 504.543 440.119"
    underline-thickness="25.6"
    underline-position="-51.2"
    unicode-range="U+0020-F1A1"
  />
    <missing-glyph />
    <glyph glyph-name="space" unicode=" " horiz-adv-x="200" 
 />
    <glyph glyph-name="uniF10B" unicode="&#xf10b;" 
d="M274.944 148.992c0 0 19.9678 -15.3604 7.67969 -44.5439c-12.2881 -29.1846 -52.3662 -15.3369 -57.8564 -13.8242c-5.48926 1.5127 -14.5674 2.74023 -20.2617 2.74023c-4.49121 0 -11.6992 -0.768555 -16.0898 -1.71582
c-7.37695 -1.60156 -19.4912 -2.90137 -27.04 -2.90137c-2.57324 0 -6.74512 0.15332 -9.31152 0.34082c0 0 -23.04 -0.511719 -29.1846 28.1602c-6.14355 28.6719 22.0166 44.0322 24.5762 46.5918c2.55957 2.56055 17.4082 12.7998 27.1357 29.1846
c9.72852 16.3838 38.9121 29.1836 59.3926 -2.56055c9.84473 -12.8877 28.1953 -31.4668 40.96 -41.4717zM197.632 105.472v71.6807h-13.3115v-19.4561h-16.3848c-9.16016 -1.49805 -18.5654 -9.98438 -20.9912 -18.9443
c-0.322266 -1.70996 -0.583008 -4.50879 -0.583008 -6.24902c0 -4.11914 1.4082 -10.4951 3.14258 -14.2305c3.36426 -6.01367 11.6221 -11.748 18.4316 -12.8008h29.6963zM252.416 105.472v0.512695v50.1758h-14.8477v-37.8877h-13.8242
c-2.05273 0.330078 -4.34668 2.16504 -5.12012 4.0957v33.792h-13.8242v-37.8877s0.511719 -9.2168 13.8242 -12.8008h33.792zM157.696 263.168c0 17.8145 10.0859 32.2559 22.5273 32.2559c12.4424 0 22.5283 -14.4414 22.5283 -32.2559
s-10.0859 -32.2559 -22.5283 -32.2559c-12.4414 0 -22.5273 14.4414 -22.5273 32.2559zM171.008 146.432h12.2881v-28.6719h-11.7764c-4.92871 0.516602 -9.74609 4.875 -10.752 9.72852c-0.196289 0.999023 -0.355469 2.63574 -0.355469 3.6543
c0 2.0332 0.618164 5.21289 1.37988 7.09766c1.41699 3.52832 5.5459 7.19824 9.21582 8.19141zM300.544 205.824c0 -6.65625 3.58398 -33.792 -21.5039 -34.3047c-25.0879 -0.511719 -26.1123 16.3848 -26.1123 29.1846s2.56055 31.2314 22.5283 31.2314
s25.0879 -19.4551 25.0879 -26.1113zM138.24 185.344c-23.04 -5.12012 -31.2324 21.5039 -28.6719 33.792c0 0 6.14355 27.1367 20.9912 28.1602c14.8486 1.02441 26.1123 -17.9199 26.624 -24.0635c0.512695 -6.14453 3.58398 -32.7686 -18.9434 -37.8887zM233.984 228.864
c-16.3848 2.04785 -20.4805 19.9678 -18.9443 32.2559s16.3838 31.2314 28.1602 28.6719c11.7754 -2.55957 22.5273 -18.4316 20.4795 -31.7441c-2.04785 -13.3115 -12.7998 -31.2314 -29.6953 -29.1836z" />
    <glyph glyph-name="uniF141" unicode="&#xf141;" 
d="M132.096 233.984c-1.02344 45.5674 28.1602 80.3838 74.752 80.3838c46.5928 0 70.6562 -24.5762 70.6562 -66.5605c0 -27.6475 -14.3359 -42.4961 -28.6719 -56.832s-29.1836 -26.624 -29.1836 -49.6641v-12.7998h-28.1602v15.3604
c2.55957 55.8076 58.8799 56.832 56.3193 105.984c-1.53516 24.5752 -16.3838 38.9111 -40.4473 38.9111c-32.2568 0 -46.5928 -24.5752 -46.5928 -55.2959h-28.6719v0.512695zM186.88 107.008h36.8643v-36.8643h-36.8643v36.8643zM204.8 -12.7998
c-113.05 0 -204.8 91.75 -204.8 204.8s91.75 204.8 204.8 204.8s204.8 -91.75 204.8 -204.8s-91.75 -204.8 -204.8 -204.8zM204.8 371.2c-98.918 0 -179.2 -80.2822 -179.2 -179.2s80.2822 -179.2 179.2 -179.2c98.9189 0 179.2 80.2822 179.2 179.2
s-80.2812 179.2 -179.2 179.2z" />
    <glyph glyph-name="uniF186" unicode="&#xf186;" 
d="M214.528 206.336v13.8242c0 6.5 -5.27637 11.7754 -11.7764 11.7754s-11.7764 -5.27539 -11.7764 -11.7754v-70.6562c-0.140625 -27.415 -22.5039 -49.665 -49.9199 -49.665c-27.5557 0 -49.9199 22.3652 -49.9199 49.9209v0.255859v30.7207h37.8887v-30.7207
c0 -6.5 5.27539 -11.7754 11.7754 -11.7754c6.50098 0 11.7764 5.27539 11.7764 11.7754v72.7041c0.140625 27.415 22.5049 49.665 49.9199 49.665c27.5557 0 49.9209 -22.3643 49.9209 -49.9209c0 -0.0703125 -0.000976562 -0.185547 -0.000976562 -0.255859v-16.3838
l-22.5283 -6.65625zM275.968 180.736h38.4004v-30.7207c0 -0.0703125 0.000976562 -0.18457 0.000976562 -0.255859c0 -27.5557 -22.3652 -49.9209 -49.9209 -49.9209c-27.415 0 -49.7793 22.25 -49.9199 49.665v31.2324l15.3594 -7.16797l22.5283 6.65527v-31.2314
c0 -6.50098 5.27539 -11.7764 11.7764 -11.7764c6.5 0 11.7754 5.27539 11.7754 11.7764v31.7441z" />
    <glyph glyph-name="uniF16A" unicode="&#xf16a;" 
d="M231.424 294.912l17.9199 -17.9199l-91.6475 -91.6484l91.6475 -91.6475l-17.9199 -17.9199l-109.567 109.567zM204.288 389.632c112.64 0 204.288 -91.6475 204.288 -204.288c0 -112.64 -91.6484 -204.288 -204.288 -204.288s-204.288 91.6484 -204.288 204.288
c0 112.641 91.6484 204.288 204.288 204.288zM204.288 6.65625c98.3037 0 178.688 80.3838 178.688 178.688c0 98.8164 -79.8721 178.688 -178.688 178.688c-98.8164 0 -178.688 -79.8721 -178.688 -178.688c0 -98.3037 79.8721 -178.688 178.688 -178.688z" />
    <glyph glyph-name="uniF124" unicode="&#xf124;" 
d="M276.48 314.88h76.7998v-327.68h-230.4v66.5596h-76.7998v327.681h230.4v-66.5605zM122.88 79.3604v235.52h128v40.96h-179.2v-276.479h51.2002zM327.68 12.7998v276.48h-179.199v-276.48h179.199zM184.32 227.84h107.52v-15.3594h-107.52v15.3594zM184.32 197.12h107.52
v-15.3604h-107.52v15.3604zM184.32 166.4h107.52v-15.3604h-107.52v15.3604zM184.32 135.68h56.3193v-15.3594h-56.3193v15.3594z" />
    <glyph glyph-name="uniF159" unicode="&#xf159;" 
d="M0 310.272v54.2715h396.8v-54.2715h-396.8zM0 157.184v54.2725h396.8v-54.2725h-396.8zM0 3.58398v54.2725h396.8v-54.2725h-396.8z" />
    <glyph glyph-name="uniF13C" unicode="&#xf13c;" 
d="M199.68 298.496l7.16797 -5.63184c2.39453 -2.46875 5.83496 -6.82617 7.68066 -9.72852c1.93945 -3.36328 4.46289 -9.09766 5.63184 -12.7998c1.14453 -4.2373 2.07422 -11.2383 2.07422 -15.6279c0 -0.491211 -0.0117188 -1.28906 -0.0263672 -1.78027
c0.00585938 -0.283203 0.0107422 -0.743164 0.0107422 -1.02637c0 -8.30176 -3.6748 -20.6875 -8.20312 -27.6455l-8.19141 -9.72754l-9.72852 -9.2168l-5.63184 -7.16797c-1.69727 -2.31348 -3.0752 -6.51953 -3.0752 -9.38965
c0 -0.0927734 0.000976562 -0.245117 0.00292969 -0.337891c-0.00683594 -0.155273 -0.0126953 -0.40625 -0.0126953 -0.561523c0 -2.57031 1.38184 -6.21777 3.08496 -8.14258l5.12012 -5.63184l11.2637 -9.21582c5.69434 -4.63867 13.9512 -13.126 18.4326 -18.9443
c4.25 -6.625 7.69922 -18.3916 7.69922 -26.2627c0 -0.382812 -0.00878906 -1.00293 -0.0195312 -1.38477c-0.332031 -14.6729 -9.96582 -33.9404 -21.5039 -43.0088c-15.0189 -12.9707 -36.5228 -19.6266 -64.5117 -19.9678
c-27.9896 -0.341146 -45.2269 4.60807 -51.7119 14.8477c-9.47363 6.56445 -17.2725 21.2441 -17.4082 32.7686c0.180664 6.16211 2.7041 15.5664 5.63184 20.9922c3.8584 7.16406 12.8037 16.1094 19.9678 19.9678c8.86719 5.06836 24.2354 10.5732 34.3037 12.2881
c8.14746 1.31934 21.4512 2.69629 29.6963 3.07227c-2.07812 2.66895 -5.06055 7.25586 -6.65625 10.2393c-1.70996 2.99609 -3.09863 8.22754 -3.09863 11.6777c0 0.30957 0.0126953 0.8125 0.0273438 1.12305c-0.0136719 0.262695 -0.0244141 0.69043 -0.0244141 0.954102
c0 1.76367 0.469727 4.54688 1.04785 6.21387l2.04785 5.63184h-10.752c-17.7493 0.341146 -31.4027 5.97298 -40.96 16.8955c-8.19629 8.12695 -14.8477 24.0898 -14.8477 35.6318v0.208008c0.292969 14.998 9.69824 35.1836 20.9922 45.0566
c7.20215 6.16113 20.5059 13.042 29.6963 15.3594c7.82715 1.64551 20.6729 3.02148 28.6719 3.07227h67.0713l-20.4795 -12.7998h-20.4805zM212.48 104.96c0.00585938 0.232422 0.0107422 0.609375 0.0107422 0.841797c0 6.8418 -3.6748 16.5576 -8.20312 21.6865
c-7.09961 6.74414 -19.4854 16.6064 -27.6484 22.0156h-20.4795c-6.03223 -0.818359 -15.666 -2.88281 -21.5039 -4.60742l-7.16797 -3.07227c-2.9082 -1.3418 -7.2666 -4.09473 -9.72852 -6.14453c-2.63965 -2.43555 -6.08105 -7.02344 -7.67969 -10.2393
c-1.98828 -3.69824 -3.60254 -10.1074 -3.60254 -14.3066c0 -0.291016 0.00878906 -0.762695 0.0185547 -1.05371c0.0078125 -10.4326 7.11816 -23.5078 15.8721 -29.1836c10.2396 -7.50977 24.0635 -11.4352 41.4717 -11.7764s29.5257 3.07227 36.3525 10.2402
c6.79199 5.26074 12.3037 16.5039 12.3037 25.0947c0 0.28125 -0.00683594 0.736328 -0.015625 1.0166v-0.511719zM165.376 203.776c7.19727 0.147461 17.0605 4.50488 22.0156 9.72754c2.33496 3.34473 4.85742 9.30859 5.63281 13.3125
c0.283203 2.89941 0.513672 7.61719 0.513672 10.5303c0 0.202148 -0.000976562 0.53125 -0.00195312 0.733398c-0.188477 11.6982 -4.77637 29.5898 -10.2402 39.9355c-2.37793 5.16504 -7.88379 12.2764 -12.2881 15.8721
c-4.47266 3.06055 -12.501 5.58301 -17.9199 5.63184c-7.5918 -0.0869141 -17.6846 -4.9043 -22.5283 -10.752c-4.24609 -5.96094 -7.69238 -16.7402 -7.69238 -24.0596c0 -0.28418 0.00585938 -0.744141 0.0126953 -1.02832
c0.307617 -11.2119 5.12402 -28.1855 10.752 -37.8877c2.82422 -4.97559 8.78809 -11.8574 13.3125 -15.3604c4.43164 -3.65039 12.6895 -6.63184 18.4316 -6.65527zM331.776 199.68v-16.8955h-35.3281v-35.3281h-16.8965v35.3281h-35.3281v16.8955h35.3281v35.3281h16.8965
v-35.3281h35.3281z" />
    <glyph glyph-name="uniF127" unicode="&#xf127;" 
d="M349.696 119.808h58.3682v-40.4473h-407.553v40.4473h58.8799v184.32h290.305v-184.32zM86.5283 276.992v-155.136h92.6719c0 -1.53613 0.511719 -2.56055 1.53613 -4.09668v-0.511719c0.511719 -1.02441 1.02344 -2.55957 1.53613 -3.58398v-0.511719
c0.511719 -1.02441 1.02344 -2.04883 2.04785 -3.07227l0.511719 -0.511719c1.02441 -1.02441 1.53613 -1.53613 2.55957 -2.56055l0.512695 -0.511719c0.511719 -1.02441 1.53613 -1.53613 2.55957 -2.04785c0.511719 0 0.511719 -0.512695 1.02441 -0.512695
c0.511719 -0.511719 1.53613 -1.02344 2.55957 -1.53516c0 0 0.511719 -0.512695 1.02441 -0.512695c1.02344 -0.511719 2.04785 -1.02344 3.07129 -1.02344c0.512695 -0.512695 1.02441 -0.512695 1.53613 -0.512695c1.53613 -0.511719 3.07227 -0.511719 4.6084 -0.511719
s3.07227 0 5.63184 0.511719c0.511719 0 1.02441 0.512695 1.53613 0.512695c1.02441 0.511719 2.04785 0.511719 3.07227 1.02344c0 0 0.511719 0.512695 1.02344 0.512695c0.512695 0.511719 1.53613 1.02344 2.56055 1.53516
c0.511719 0 0.511719 0.512695 1.02344 0.512695c1.02441 0.511719 1.53613 1.53613 2.56055 2.04785l0.511719 0.511719c1.02441 0.511719 2.04785 1.53613 2.55957 2.56055l0.512695 0.511719c0.511719 1.02344 1.53613 2.04785 2.04785 3.07227v0.511719
c0.511719 1.02441 1.02344 2.04785 1.53613 3.58398v0.511719c0.511719 1.02441 1.02344 2.56055 1.02344 4.09668h92.6719v155.136h-236.031z" />
    <glyph glyph-name="uniF10F" unicode="&#xf10f;" 
d="M127.488 228.352h31.2314v-62.4639h-62.4639v62.4639l15.8721 62.4648h30.7197zM221.184 228.352h31.2324v-62.4639h-62.4639v62.4639l15.3594 62.4648h31.2324zM0 364.544h344.064v-360.96h-243.713v0l-100.352 100.352v0v260.608zM115.2 119.808l0.511719 -89.0879
h201.216v306.688h-289.792v-217.601h88.0645z" />
    <glyph glyph-name="uniF100" unicode="&#xf100;" 
d="M190.976 82.4316v204.801h27.1367v-204.801h-27.1367zM102.4 171.52v27.1367h204.8v-27.1367h-204.8zM204.8 362.496c-97.792 0 -177.664 -79.8721 -177.664 -177.664s79.8721 -177.664 177.664 -177.664s177.664 79.8721 177.664 177.664
s-79.8721 177.664 -177.664 177.664zM204.8 389.632v0c113.152 0 204.8 -91.6475 204.8 -204.8s-91.6475 -204.8 -204.8 -204.8c-113.151 0 -204.8 91.6475 -204.8 204.8s91.6484 204.8 204.8 204.8z" />
    <glyph glyph-name="uniF197" unicode="&#xf197;" 
d="M182.784 110.592c-37.8877 -3.58398 -71.168 13.3125 -73.7285 38.4004c-2.55957 25.0879 26.624 48.6396 65.0244 52.2236s71.168 -13.3115 73.7275 -38.3994c2.56055 -25.0889 -26.624 -48.1279 -64.5117 -52.2246zM259.072 193.536
c-3.07227 1.02344 -5.63184 1.53613 -3.58398 6.14355c2.04785 4.6084 4.0957 17.4082 0 23.04c-4.09668 5.63184 -28.1602 10.2402 -51.2002 0.512695c0 0 -7.16797 -3.07227 -5.63184 2.55957s3.07129 21.5039 -2.56055 27.1357s-46.5918 -0.511719 -75.7754 -29.6953
c-29.1846 -29.1846 -34.3047 -44.5439 -34.3047 -64.5127c0 -37.8877 48.6406 -61.4395 96.7686 -61.4395c62.4639 -0.512695 103.936 36.3516 103.936 65.0234c0 17.4082 -14.8477 27.1367 -28.1602 31.2324zM300.544 263.168
c-10.0234 11.1729 -30.3418 20.2412 -45.3516 20.2412c-3.48828 0 -9.09082 -0.581055 -12.5039 -1.29688v0c-3.91699 -0.806641 -7.09473 -4.70605 -7.09473 -8.7041c0 -4.90527 3.98047 -8.88672 8.88672 -8.88672c0.499023 0 1.30176 0.0820312 1.79199 0.182617
c2.375 0.484375 6.27051 0.876953 8.69434 0.876953c24.0234 0 43.5205 -19.4961 43.5205 -43.5195c0 -3.7207 -0.914062 -9.61914 -2.03906 -13.165v0c-0.25293 -0.756836 -0.457031 -2.01855 -0.457031 -2.81641c0 -4.91602 3.98926 -8.90527 8.90527 -8.90527
c3.54199 0 7.32715 2.72852 8.44727 6.08887v0c1.60059 5 2.89844 13.3193 2.89844 18.5693c0 12.9336 -7.03223 31.2217 -15.6982 40.8232zM277.504 242.688c-4.88477 5.43359 -14.7783 9.84375 -22.085 9.84375c-1.69434 0 -4.41602 -0.28125 -6.0752 -0.62793
c-4.05469 -0.176758 -7.3457 -3.61426 -7.3457 -7.67285c0 -4.23926 3.44043 -7.68066 7.67969 -7.68066c0.78125 0 2.00781 0.226562 2.73828 0.504883v0c0.892578 0.209961 2.36035 0.379883 3.27637 0.379883c7.91309 0 14.3359 -6.42285 14.3359 -14.3359
c0 -1.2666 -0.321289 -3.27246 -0.716797 -4.47559v0c-0.538086 -0.963867 -0.974609 -2.6416 -0.974609 -3.74609c0 -4.23926 3.44043 -7.67969 7.67969 -7.67969c3.78711 0 7.20605 3.05469 7.63184 6.81738c0.824219 2.50098 1.49414 6.66797 1.49414 9.30176
c0 6.29785 -3.42188 15.2051 -7.63867 19.8828zM184.832 156.16c-0.894531 -1.56934 -3.08691 -2.84277 -4.89258 -2.84277c-0.5 0 -1.28906 0.125977 -1.76367 0.282227c-1.1543 0.648438 -2.0918 2.24902 -2.0918 3.57227c0 0.610352 0.249023 1.5332 0.555664 2.06055
c0.894531 1.56934 3.08691 2.84277 4.89355 2.84277c0.499023 0 1.28906 -0.126953 1.7627 -0.283203c1.37793 -0.584961 2.49609 -2.27344 2.49609 -3.77051c0 -0.542969 -0.201172 -1.37695 -0.448242 -1.86133zM173.056 140.8
c-2.33105 -3.6709 -7.75293 -6.65039 -12.1016 -6.65039c-1.51855 0 -3.89551 0.456055 -5.30566 1.01855c-3.33984 1.49805 -6.05078 5.68359 -6.05078 9.34375c0 1.83594 0.875977 4.53125 1.9541 6.0166c2.33203 3.6709 7.75293 6.64941 12.1016 6.64941
c1.51855 0 3.89648 -0.456055 5.30664 -1.01758c3.33984 -1.49805 6.0498 -5.68359 6.0498 -9.34375c0 -1.83594 -0.875 -4.53125 -1.9541 -6.0166zM186.88 182.272c-2.75 0.691406 -7.2832 1.25293 -10.1182 1.25293c-13.6416 0 -29.9814 -9.73633 -36.4736 -21.7334
c-1.80371 -3.41016 -3.2666 -9.30762 -3.2666 -13.165c0 -12.0713 9.49121 -24.2939 21.1865 -27.2832c3.33594 -1.05762 8.88379 -1.91699 12.3838 -1.91699c14.0879 0 30.5596 10.2637 36.7686 22.9092c7.67969 17.4082 -2.04883 34.8164 -20.4805 39.9365z" />
    <glyph glyph-name="uniF153" unicode="&#xf153;" 
d="M163.84 362.496c-36.3516 0 -70.6562 -14.3359 -96.7676 -40.4482c-25.6006 -25.5996 -39.9365 -60.416 -39.9365 -96.7676c0 -39.4238 14.3359 -76.2881 40.4482 -103.937l96.2559 -102.399l96.2559 102.399c26.1123 28.1602 40.4482 65.0244 40.4482 104.448
c0 36.3516 -13.8242 70.6562 -39.9355 96.7676c-25.6006 25.6006 -60.416 39.9365 -96.7686 39.9365zM163.84 389.632v0c45.5684 0 86.5283 -18.4316 116.225 -47.6162c29.6953 -29.6953 48.1279 -71.168 48.1279 -116.224c0 -48.1279 -18.4326 -91.6484 -48.1279 -122.88
l-116.225 -123.393l-115.712 123.393c-29.6963 31.7441 -48.1279 74.752 -48.1279 122.88c0 45.0557 18.4316 86.0156 47.6162 115.712c29.6953 29.6963 71.168 48.1279 116.224 48.1279zM109.056 225.792c0 30.2568 24.5283 54.7842 54.7842 54.7842
c30.2568 0 54.7842 -24.5273 54.7842 -54.7842s-24.5273 -54.7842 -54.7842 -54.7842c-30.2559 0 -54.7842 24.5273 -54.7842 54.7842z" />
    <glyph glyph-name="uniF138" unicode="&#xf138;" 
d="M178.688 289.28h229.888v-40.96v-218.112h-408.576v218.112v40.96v51.7119h178.688v-51.7119zM381.44 57.8564h-0.512695v190.464h-353.792v-190.464h354.305z" />
    <glyph glyph-name="uniF177" unicode="&#xf177;" 
d="M181.248 229.376c40.96 0 74.2402 -33.2803 74.2402 -74.2402s-33.2803 -74.2393 -74.2402 -74.2393s-74.2402 33.2793 -74.2402 74.2393s33.2803 74.2402 74.2402 74.2402zM181.248 107.52c26.1123 0 47.6162 21.5049 47.6162 47.6162
c0 26.1123 -21.5039 47.6162 -47.6162 47.6162s-47.6162 -21.5039 -47.6162 -47.6162c0 -26.1113 21.5039 -47.6162 47.6162 -47.6162zM269.312 365.568h93.1846v-359.425h-362.496v291.328l68.6084 68.0967h25.0879h175.615zM242.688 338.944h-122.368v-47.1045h122.368
v47.1045zM335.872 32.7676h0.511719v306.177h-67.0723v-73.7285h-175.615v73.7285h-14.3359l-52.7363 -52.7363v-253.44h309.248z" />
    <glyph glyph-name="uniF13F" unicode="&#xf13f;" 
d="M227.84 286.208c8.91992 -17.4805 25.2061 -44.7764 36.3525 -60.9277l-12.8008 -175.616s-12.2881 -13.8242 -47.6152 -13.8242v0c-35.3281 0 -47.6162 13.8242 -47.6162 13.8242l-12.7998 175.616c11.1611 16.2891 27.4473 43.8145 36.3516 61.4395
c6.89941 14.0293 15.8447 37.6553 19.9678 52.7363v-149.504c-5.22852 -1.73438 -9.47168 -7.6123 -9.47168 -13.1211c0 -7.63086 6.19336 -13.8242 13.8242 -13.8242s13.8242 6.19336 13.8242 13.8242c0 5.50879 -4.24414 11.3867 -9.47266 13.1211v148.992
c3.98438 -15.0664 12.7002 -38.6924 19.4561 -52.7363z" />
    <glyph glyph-name="uniF10A" unicode="&#xf10a;" 
d="M286.208 112.64c0 0 33.792 -26.1113 11.7764 -77.8232c-20.9922 -50.1768 -99.3281 -24.0645 -99.3281 -24.0645s-29.1846 9.72852 -62.4639 2.04785c-33.792 -7.67969 -62.4648 -4.60742 -62.4648 -4.60742s-38.9111 -1.02441 -50.1758 48.6396
c-10.752 49.6641 39.4238 76.7998 43.0078 81.4082c3.58398 5.12012 29.6963 22.5273 46.5928 50.6875c16.8955 28.1602 67.0713 50.6885 102.399 -4.60742c26.1123 -37.376 70.6562 -71.6807 70.6562 -71.6807zM152.576 37.8877v122.88l-23.04 0.512695v-33.2803h-27.1357
s-26.624 -2.04785 -36.3525 -32.7676c-3.07227 -20.4805 3.07227 -32.7686 4.0957 -35.3281c1.02441 -2.56055 9.72852 -17.4082 31.7441 -22.0166h50.6885zM247.296 37.8877v87.04h-25.0879v-65.0234h-24.0645s-7.67969 1.02344 -9.21582 7.16797v58.3682
l-23.5518 -0.512695v-65.0234s1.02441 -16.3848 23.5518 -22.0166h58.3682zM122.368 253.44c-21.5039 0 -38.9121 25.0879 -38.9121 55.8076s17.4082 55.2959 38.9121 55.2959s38.9121 -24.5762 38.9121 -55.2959s-17.4082 -55.8076 -38.9121 -55.8076zM107.008 108.032
h21.5039v-50.1758h-20.4795s-14.3359 1.02344 -18.4326 17.4072c-2.04785 7.16797 0.512695 15.8721 1.53613 18.9443c1.02441 3.07227 6.14453 10.752 15.8721 13.8242zM330.24 210.944c0 -11.2646 4.60742 -58.8799 -37.8887 -59.3926
c-43.0078 -1.02344 -44.5439 28.6719 -44.5439 50.1758c0 22.5283 4.6084 54.2725 38.9121 54.2725c34.3047 0 43.5205 -33.792 43.5205 -45.0557zM50.1758 175.104c-39.4238 -8.19141 -53.7598 36.8643 -49.6641 57.8564c0 0 4.6084 46.0801 36.8643 48.6396
c25.0879 2.56055 43.5205 -25.0879 45.5684 -40.96c1.02344 -10.2393 6.14355 -57.3438 -32.7686 -65.5361zM215.552 249.856c-28.6719 4.0957 -35.3281 30.208 -32.2559 55.8076c2.04785 21.5039 27.6484 54.2715 48.1279 49.6641
c20.4805 -4.6084 38.9121 -31.7441 35.3281 -55.2959c-3.58398 -23.04 -22.5283 -53.7598 -51.2002 -50.1758z" />
    <glyph glyph-name="uniF122" unicode="&#xf122;" 
d="M77.3115 205.312c-25.5996 0 -46.5918 -20.9912 -46.5918 -46.5918c0 -25.5996 20.9922 -46.5918 46.5918 -46.5918c25.6006 0 46.5928 20.9922 46.5928 46.5918c0 25.6006 -20.9922 46.5918 -46.5928 46.5918zM77.3115 223.232v0
c35.3281 0 64.5127 -28.1602 64.5127 -64c0 -35.8408 -29.1846 -64.5127 -64.5127 -64.5127c-35.8398 0 -64.5117 28.1602 -64.5117 64s29.1846 64.5127 64.5117 64.5127zM283.136 205.312c-25.5996 0 -46.5918 -20.9912 -46.5918 -46.5918
c0 -25.5996 20.9922 -46.5918 46.5918 -46.5918c25.6006 0 46.5918 20.9922 46.5918 46.5918c0 25.6006 -20.9912 46.5918 -46.5918 46.5918zM283.136 223.232v0c35.8398 0 64.5127 -28.1602 64.5127 -64c0 -35.8408 -29.1846 -64.5127 -64.5127 -64.5127
s-64.5117 28.1602 -64.5117 64s29.1836 64.5127 64.5117 64.5127zM180.224 346.624c-25.5996 0 -46.5918 -20.9922 -46.5918 -46.5918c0 -25.6006 20.9922 -46.5918 46.5918 -46.5918c25.6006 0 46.5928 20.9912 46.5928 46.5918
c0 25.5996 -20.9922 46.5918 -46.5928 46.5918zM180.224 365.056v0c35.3281 0 64.5127 -29.1836 64.5127 -64.5117c0 -35.8398 -29.1846 -64.5117 -64.5127 -64.5117c-35.8398 0 -64.5117 29.1836 -64.5117 64.5117c0 35.8398 29.1846 64.5117 64.5117 64.5117z
M128.512 68.6084c14.3359 0 26.1123 -11.2646 26.1123 -25.6006v-38.3994h-154.624v38.3994c0 13.8242 11.2637 25.6006 25.5996 25.6006h102.912zM334.848 68.6084c13.8242 0 25.6006 -11.2646 26.1123 -25.6006v-38.3994h-154.624v38.3994
c0 13.8242 11.2637 25.6006 25.5996 25.6006h102.912z" />
    <glyph glyph-name="uniF184" unicode="&#xf184;" 
d="M204.8 362.496c-97.792 0 -177.664 -79.8721 -177.664 -177.664s79.8721 -177.664 177.664 -177.664s177.664 79.8721 177.664 177.664s-79.8721 177.664 -177.664 177.664zM204.8 389.632v0c113.152 0 204.8 -91.6475 204.8 -204.8s-91.6475 -204.8 -204.8 -204.8
c-113.151 0 -204.8 91.6475 -204.8 204.8s91.6484 204.8 204.8 204.8zM135.68 115.712v137.216h135.168v-137.216h-135.168z" />
    <glyph glyph-name="uniF132" unicode="&#xf132;" 
d="M120.832 5.12012h-65.5361v163.84h-55.2959v64h55.2959v47.1045c0 54.7832 33.2803 84.4795 81.9199 84.4795c23.04 0 43.5205 -1.53613 49.1523 -2.55957v-56.832h-33.792c-26.624 0 -31.7441 -12.8008 -31.7441 -31.2324v-40.96h63.4883l-8.7041 -64h-54.7842v-163.84z
" />
    <glyph glyph-name="uniF15D" unicode="&#xf15d;" 
d="M204.288 389.632c112.64 0 204.288 -91.6475 204.288 -204.288c0 -112.64 -91.6484 -204.288 -204.288 -204.288s-204.288 91.6484 -204.288 204.288c0 112.641 91.6484 204.288 204.288 204.288zM204.288 6.65625c98.3037 0 178.688 80.3838 178.688 178.688
c0 98.3047 -80.3838 178.688 -178.688 178.688s-178.688 -79.8721 -178.688 -178.688c0 -98.8154 79.8721 -178.688 178.688 -178.688zM269.824 269.824l-43.0078 -71.6807h83.9678v-25.5996h-83.9678l43.0078 -72.1924l-21.5039 -12.7998l-44.0322 72.7041
l-44.0322 -72.7041l-22.0156 12.7998l43.5195 72.1924h-83.9678v25.5996h83.9678l-43.5195 71.6807l22.0156 13.3115l44.0322 -73.2158l44.0322 73.2158z" />
    <glyph glyph-name="uniF156" unicode="&#xf156;" 
d="M379.904 26.624l-26.624 -26.624l-98.3047 98.3037c-26.624 -22.5273 -62.9756 -37.8877 -100.863 -37.8877c-85.5039 0 -154.112 68.6084 -154.112 154.112s68.6084 154.624 154.112 154.624s154.111 -68.6084 154.111 -154.112
c0 -32.2559 -11.7754 -62.9756 -28.6719 -87.5518zM154.112 98.8164c64.5117 0 115.712 51.1992 115.712 115.712c0 64.5117 -51.2002 115.712 -115.712 115.712c-64.5127 0 -115.712 -51.2002 -115.712 -115.712c0 -64.5127 51.1992 -115.712 115.712 -115.712z" />
    <glyph glyph-name="uniF189" unicode="&#xf189;" 
d="M236.544 277.504c4.31543 -0.0380859 10.2793 -2.56152 13.3125 -5.63184l43.5195 -43.5205c3.0166 -3.05469 5.46582 -9.01855 5.46582 -13.3115c0 -4.29395 -2.44922 -10.2568 -5.46582 -13.3125l-88.0645 -87.5518
c-3.05469 -3.0166 -9.01758 -5.46582 -13.3115 -5.46582s-10.2568 2.44922 -13.3115 5.46582l-43.5205 43.5205c-3.0166 3.05469 -5.46582 9.01855 -5.46582 13.3115c0 4.29395 2.44922 10.2578 5.46582 13.3125l88.0645 87.5518
c3.03223 3.07031 8.99609 5.59375 13.3115 5.63184zM236.544 301.056c-0.0878906 0.000976562 -0.229492 0.00195312 -0.317383 0.00195312c-9.64453 0 -23.0352 -5.50586 -29.8906 -12.29l-88.0635 -87.5518c-6.95898 -6.88477 -12.6064 -20.418 -12.6064 -30.208
c0 -9.78906 5.64746 -23.3223 12.6064 -30.208l43.5195 -43.5195c6.88574 -6.95898 20.4189 -12.6064 30.208 -12.6064s23.3223 5.64746 30.208 12.6064l88.0645 87.5518c6.95801 6.88574 12.6064 20.4189 12.6064 30.208s-5.64844 23.3223 -12.6064 30.208
l-43.5205 43.5195c-6.85547 6.78418 -20.2461 12.29 -29.8906 12.29c-0.0878906 0 -0.229492 -0.000976562 -0.317383 -0.00195312v0zM260.096 373.248l28.1602 -27.6484c-2.10645 -5.66797 -3.81641 -15.1768 -3.81641 -21.2236
c0 -33.6328 27.2959 -60.9277 60.9287 -60.9277c6.04688 0 15.5557 1.70898 21.2236 3.81543l28.1602 -28.1602l-226.304 -226.815l-28.1602 28.1602c2.23047 5.81543 4.04102 15.5908 4.04102 21.8203c0 33.6318 -27.2959 60.9277 -60.9277 60.9277
c-6.11621 0 -15.7256 -1.74707 -21.4492 -3.90039l-28.1602 27.6484l226.304 226.815zM260.096 399.36v0c4.31641 -0.0380859 10.2793 -2.56152 13.3125 -5.63281l44.5439 -44.5439c-5.92969 -5.9873 -10.7412 -17.6855 -10.7412 -26.1113
c0 -20.4844 16.625 -37.1094 37.1094 -37.1094c8.54297 0 20.3564 4.92676 26.3682 10.9971l44.5439 -44.5439c3.0166 -3.05469 5.46484 -9.01855 5.46484 -13.3125c0 -4.29297 -2.44824 -10.2568 -5.46484 -13.3115l-233.473 -233.472
c-3.05469 -3.01758 -9.01855 -5.46582 -13.3115 -5.46582c-4.29395 0 -10.2578 2.44824 -13.3125 5.46582l-44.5439 44.5439c5.92969 5.9873 10.7412 17.6855 10.7412 26.1113c0 20.4844 -16.625 37.1094 -37.1094 37.1094c-8.54297 0 -20.3564 -4.92676 -26.3672 -10.9971
l-44.5449 44.5439c-3.0166 3.05469 -5.46484 9.01855 -5.46484 13.3125c0 4.29297 2.44824 10.2568 5.46484 13.3115l233.473 233.472c3.03223 3.07129 8.99609 5.59473 13.3115 5.63281z" />
    <glyph glyph-name="uniF160" unicode="&#xf160;" 
d="M251.392 286.72c35.3281 0 64 -28.6719 64 -64s-28.6719 -64 -64 -64c-7.67969 0 -15.3594 1.02441 -22.0156 3.58398l-16.3838 -16.3838h-25.6006v-25.5996h-25.5996v-25.6006h-25.5996v-12.7998h-12.8008c-7.16797 0 -12.7998 5.63184 -12.7998 12.7998v38.4004
l77.8242 77.8242c-0.511719 4.0957 -1.02441 7.67969 -1.02441 11.7754c0 35.3281 28.6729 64 64 64zM270.336 222.72c10.752 0 19.4561 8.7041 19.4561 19.4561s-8.7041 19.4561 -19.4561 19.4561s-19.4561 -8.7041 -19.4561 -19.4561s8.7041 -19.4561 19.4561 -19.4561z
M204.8 389.632c113.152 0 204.8 -91.6475 204.8 -204.8s-91.6475 -204.8 -204.8 -204.8c-113.151 0 -204.8 91.6475 -204.8 204.8s91.6484 204.8 204.8 204.8zM204.8 7.16797c97.792 0 177.664 79.8721 177.664 177.664s-79.8721 177.664 -177.664 177.664
s-177.664 -79.8721 -177.664 -177.664s79.8721 -177.664 177.664 -177.664z" />
    <glyph glyph-name="uniF17D" unicode="&#xf17d;" 
d="M305.152 163.84c3.94141 -7.37012 7.14062 -20.1348 7.14062 -28.4932c0 -33.3496 -27.0664 -60.416 -60.416 -60.416c-8.58008 0 -21.6426 3.36035 -29.1572 7.50098v0c-4.83984 -0.847656 -12.7568 -1.53613 -17.6709 -1.53613
c-0.0683594 0 -0.180664 0 -0.249023 0.000976562c-56.2422 0 -101.888 45.6455 -101.888 101.888c0.0126953 4.84082 0.700195 12.6396 1.53613 17.4082v0c-3.81934 7.27734 -6.91895 19.8545 -6.91895 28.0732c0 33.3496 27.0664 60.416 60.416 60.416
c7.99707 0 20.2715 -2.94336 27.3984 -6.56934v0c5.31543 1.08008 14.0322 1.99805 19.4561 2.04785c56.2422 0 101.889 -45.6455 101.889 -101.888c0.000976562 -0.207031 0.00195312 -0.541016 0.00195312 -0.74707c0 -4.91797 -0.689453 -12.8408 -1.53809 -17.6855v0z
M205.312 120.32c34.3047 0 51.2002 16.3838 51.2002 39.4238c0 14.3359 -6.65527 29.6963 -32.7676 35.3281l-23.5518 5.12012c-9.2168 2.04785 -19.4561 5.11914 -19.4561 13.3115s7.16797 14.3359 20.4795 14.3359c26.624 0 24.0645 -18.4316 37.376 -18.4316
c0.285156 -0.0253906 0.748047 -0.0458984 1.0332 -0.0458984c6.24805 0 11.5195 5.06738 11.7666 11.3096c0 16.3838 -24.5752 28.6719 -48.6396 28.6719c-24.0635 0 -49.6641 -10.2402 -49.6641 -37.376c0 -13.3115 4.6084 -27.1357 30.7197 -33.792l32.2568 -8.19141
c9.72754 -2.56055 12.2871 -4.6084 12.2871 -12.8008c0 -8.19141 -8.19141 -16.3838 -23.04 -16.3838c-29.1836 0 -25.0879 22.0166 -40.4473 22.0166c-0.144531 0.00585938 -0.379883 0.0117188 -0.524414 0.0117188c-6.21777 0 -11.2637 -5.0459 -11.2637 -11.2637
c0 -0.144531 0.00488281 -0.379883 0.0117188 -0.524414c0 -13.3125 15.8721 -30.7197 52.2236 -30.7197z" />
    <glyph glyph-name="uniF152" unicode="&#xf152;" 
d="M301.056 121.344v0.512695h0.512695v-21.5049c-2.08691 -0.333984 -5.49609 -0.604492 -7.61035 -0.604492c-2.87891 0 -7.49805 0.5 -10.3096 1.11719c-3.6543 0.921875 -8.92969 3.67383 -11.7764 6.14355c-2.48633 2.5166 -5.23828 7.33301 -6.14453 10.752
c-1.03711 4.79004 -1.87793 12.6543 -1.87793 17.5547c0 2.08301 0.15332 5.45898 0.342773 7.5332c0 16.8965 -0.512695 33.2803 -1.53613 50.1768c-0.352539 6.81934 -1.5 17.8291 -2.56055 24.5752c-0.443359 3.16895 -1.59082 8.21484 -2.55957 11.2646
c-1.02441 2.55957 -3.07227 7.67969 -6.65625 7.67969h18.9443c0.676758 0.19043 1.7959 0.345703 2.49902 0.345703c2.20117 0 5.20996 -1.30176 6.7168 -2.90527c1.67383 -2.60938 3.50977 -7.19629 4.0957 -10.2402c0.739258 -3.3623 1.65625 -8.86816 2.04785 -12.2881
c1.6543 -13.6572 3.03027 -35.9072 3.07227 -49.6641v-25.0879c-0.0712891 -0.646484 -0.128906 -1.69824 -0.128906 -2.34863c0 -2.74121 0.975586 -6.96387 2.17676 -9.42773c1.78027 -2.13867 5.4834 -3.875 8.26562 -3.875
c0.696289 0 1.80957 0.130859 2.48633 0.291016zM243.712 121.856v-0.512695h-69.1201c-2.70508 0.897461 -6.60449 3.19141 -8.7041 5.12012c-4.8916 4.44824 -11.543 12.7061 -14.8477 18.4326c-7.02539 11.5928 -17.1182 31.0898 -22.5283 43.5195
c-6.65527 14.3359 -13.3115 29.1836 -20.9922 43.0078c-3.10938 5.78223 -8.84375 14.7275 -12.7998 19.9678c-3.58887 5.43262 -11.3877 11.8555 -17.4082 14.3359h11.7764c17.4082 0 35.3281 -0.511719 52.2236 -2.04785
c16.8965 -1.53613 34.8164 -4.0957 49.1523 -13.3115s22.0166 -25.6006 27.6484 -40.96c4.28516 -12.9395 10.0195 -34.2715 12.7998 -47.6162c2.04785 -7.67969 4.60742 -19.4561 5.63184 -23.04s1.53613 -7.16797 3.07227 -10.752
c0.43457 -2.15918 2.26953 -4.91211 4.0957 -6.14355z" />
    <glyph glyph-name="uniF136" unicode="&#xf136;" 
d="M0 192c0 50.6162 41.0322 91.6484 91.6484 91.6484c50.6152 0 91.6475 -41.0322 91.6475 -91.6484s-41.0322 -91.6484 -91.6475 -91.6484c-50.6162 0 -91.6484 41.0322 -91.6484 91.6484zM225.28 192c0 50.6162 41.0322 91.6484 91.6475 91.6484
c50.6162 0 91.6484 -41.0322 91.6484 -91.6484s-41.0322 -91.6484 -91.6484 -91.6484c-50.6152 0 -91.6475 41.0322 -91.6475 91.6484z" />
    <glyph glyph-name="uniF14A" unicode="&#xf14a;" 
d="M299.52 346.112c-29.6953 0 -56.3193 -14.8486 -72.1914 -40.4482l-23.04 -38.9121l-23.04 38.9121c-15.3604 25.0879 -41.9844 40.4482 -71.168 40.4482c-45.5684 0 -82.9443 -36.8643 -82.9443 -82.9443c0 -22.5283 8.7041 -43.5195 24.0645 -59.9043
c33.792 -35.3281 115.2 -125.439 153.6 -167.424c37.8887 41.9844 119.809 132.096 153.601 167.424c15.3594 15.8721 24.0635 37.376 24.0635 59.9043c0 45.5684 -36.8643 82.9443 -82.9443 82.9443zM299.52 373.248v0c60.9287 0 110.08 -49.1523 111.104 -110.08
c0 -30.7197 -12.2881 -58.3682 -31.7441 -78.8477c-44.5439 -46.0801 -173.568 -188.929 -173.568 -188.929s-129.023 142.849 -173.567 188.929c-19.9678 20.4795 -31.7441 48.1279 -31.7441 78.8477c0 60.9277 49.1523 110.08 110.08 110.08
c40.4482 0 75.2637 -21.5039 94.7197 -53.7598c19.4561 32.2559 54.2725 53.7598 94.7197 53.7598z" />
    <glyph glyph-name="uniF147" unicode="&#xf147;" 
d="M342.528 226.304c26.624 -5.12012 34.8154 -27.6475 -1.02441 -69.6318c-17.9199 -21.5039 -44.0322 -33.2803 -69.1201 -40.4482c-2.04785 -0.511719 -2.55957 -1.02344 -2.55957 -3.07129c1.53613 -25.0879 5.12012 -52.2246 7.67969 -77.3125
c3.07227 -35.3281 -26.624 -42.4961 -71.168 -18.9434c-24.5762 12.7998 -46.0801 28.6719 -67.0723 46.5918c-2.04785 2.04785 -3.07129 2.04785 -5.63184 0c-15.3594 -12.7998 -30.7197 -23.5527 -51.7119 -37.8887c-23.04 -15.3594 -40.96 -1.02344 -49.6641 27.6484
c-13.3115 45.0557 -3.58398 82.9443 6.14453 117.76c1.02344 3.58398 1.02344 5.12012 -1.02441 8.19238c-27.6484 39.9355 -35.3281 65.5361 -37.376 100.864c-2.04785 33.792 18.9443 47.6152 33.2803 39.9355c29.1836 -15.8721 46.5918 -22.0156 67.0713 -25.5996
c2.56055 -0.512695 3.58398 0 5.12012 2.04785c23.04 26.624 49.1523 49.1514 79.8721 62.9756c37.8887 16.3838 51.2002 -9.21582 54.2725 -28.1602c5.12012 -29.1836 9.21582 -58.3672 14.3359 -86.5273c0.511719 -1.53613 1.02344 -2.04785 2.04785 -2.56055
c30.208 -7.16797 57.8564 -10.752 86.5283 -15.8721zM104.448 217.6c-1.53613 -22.0156 3.07129 -38.3994 17.4082 -41.9834c15.3594 -3.07227 24.5752 7.16797 32.7676 17.4082c-0.511719 -14.8486 3.07227 -33.792 19.9678 -37.376
c18.4326 -3.58398 33.792 13.8232 40.96 37.8877c8.19238 28.1602 5.12012 57.8555 -14.8477 64.5117c-9.21582 3.07227 -20.9922 -2.55957 -28.6719 -11.7754c-2.04785 16.3838 -7.68066 30.208 -22.5283 32.7676c-18.9443 3.07227 -42.4961 -27.6484 -45.0557 -61.4404z
M215.552 146.432c2.04785 -3.07129 10.752 -8.7041 8.19238 -5.63184c-5.12012 5.12012 -7.16797 12.2881 -6.65625 20.9922c0 3.07227 -3.58398 -6.14355 -3.07227 -12.2881c-21.5039 -16.3838 -61.9512 -36.8643 -92.1592 -27.1357
c-25.6006 8.19141 -36.3525 40.96 -40.4482 70.1436c4.0957 2.04785 11.7754 11.2646 9.21582 9.21582c-7.16797 -5.63184 -13.3125 -7.67969 -20.4805 -7.67969c-2.04785 0 5.12012 -2.55957 8.19238 -2.55957c4.6084 -34.8164 11.7764 -69.1201 38.4004 -78.3359
c33.792 -11.2646 71.6797 11.7754 98.8154 33.2793zM142.336 221.696c-6.65625 1.02344 -5.63184 13.3115 -3.58398 20.9922c3.07227 13.8232 10.752 20.4795 15.8721 18.9434s6.65625 -11.2637 2.04785 -25.5996c-2.55957 -6.65625 -8.19141 -15.3604 -14.3359 -14.3359z
M152.576 256.512c-2.56055 0 -4.6084 -2.04785 -4.6084 -4.60742c0 -2.56055 2.04785 -4.6084 4.6084 -4.6084c2.55957 0 4.60742 2.04785 4.60742 4.6084c0 2.55957 -2.04785 4.60742 -4.60742 4.60742zM197.12 201.216
c-7.16797 0.511719 -7.16797 12.7998 -5.63184 20.4805c2.04785 13.8232 9.21582 20.9922 14.3359 19.9678s7.67969 -10.752 4.0957 -25.0879c-1.53613 -6.65625 -6.65625 -15.8721 -12.7998 -15.3604zM204.8 236.032c-3.07227 0 -5.12012 -2.04785 -4.60742 -4.6084
c0 -2.55957 2.04785 -4.60742 4.60742 -4.60742c2.56055 0 4.6084 2.04785 4.6084 4.60742c0 2.56055 -2.04785 4.6084 -4.6084 4.6084z" />
    <glyph glyph-name="uniF15C" unicode="&#xf15c;" 
d="M0 105.482h172.646l-86.3232 -86.3232zM172.646 268.288l-172.646 -0.0107422l86.3184 86.3232z" />
    <glyph glyph-name="uniF14E" unicode="&#xf14e;" 
d="M105.472 310.272v54.2715h284.16v-54.2715h-284.16zM105.472 157.184v54.2725h284.16v-54.2725h-284.16zM105.472 3.58398v54.2725h284.16v-54.2725h-284.16zM0 310.272v54.2715h54.2725v-54.2715h-54.2725zM0 157.184v54.2725h54.2725v-54.2725h-54.2725zM0 3.58398
v54.2725h54.2725v-54.2725h-54.2725z" />
    <glyph glyph-name="uniF191" unicode="&#xf191;" 
d="M184.32 317.952l-77.3125 -77.3125l-17.4082 17.4082l107.009 107.008l106.495 -107.008l-17.4072 -17.4082l-77.3125 77.3125v-203.776h-24.0635v203.776zM392.704 151.04v-146.944h-12.2881v-0.511719h-368.128v0.511719h-12.2881v146.944h24.5762v-98.3037h343.552
v98.3037h24.5762z" />
    <glyph glyph-name="uniF16E" unicode="&#xf16e;" 
d="M201.216 202.752l-19.4561 18.9443l64.5127 64l-64.5127 64.5117l19.4561 18.9443l83.4561 -83.4561zM154.624 2.04785c-81.9199 0 -148.48 66.5605 -148.48 148.48s66.5605 148.479 148.48 148.479h110.592v-27.1357h-110.592
c-67.0723 0.511719 -121.344 -54.2725 -121.344 -121.344c0 -67.0723 54.7842 -121.345 121.344 -121.345c32.2559 0 62.9756 12.8008 86.0156 35.8408l18.9443 -18.9443c-27.6484 -28.6719 -65.0244 -44.0322 -104.96 -44.0322z" />
    <glyph glyph-name="uniF12F" unicode="&#xf12f;" 
d="M87.04 258.56h235.52v-153.6h-235.52v153.6zM204.8 141.824l-32.7676 32.7676l-52.7363 -54.2715h171.008l-53.248 54.2715zM248.32 186.368l58.8799 -60.416v115.2zM285.696 243.2h-161.792l80.8955 -77.3125zM161.28 186.88l-58.8799 54.2725v-114.688z" />
    <glyph glyph-name="uniF12C" unicode="&#xf12c;" 
d="M364.032 335.36c9.21582 -9.2168 9.21582 -23.5527 0 -32.2568l-279.04 -278.016l-84.9922 -24.5762l24.5762 84.9922l277.504 279.04c4.6084 4.6084 10.752 6.65625 16.3838 6.65625c6.14453 0 11.7764 -2.04785 16.3838 -6.65625zM72.1924 47.1035l176.128 175.104
l-25.6006 25.5996l-175.616 -175.615l-10.2393 -35.3281zM265.216 239.616l27.6484 27.6475l-25.6006 25.6006l-27.6475 -27.6484zM311.296 285.696l33.2803 33.2793l-25.6006 25.6006l-33.2793 -33.2803z" />
    <glyph glyph-name="uniF173" unicode="&#xf173;" 
d="M32.7676 250.368l18.9443 -17.9199l-29.1836 -29.1846l-18.4326 18.4326c-5.12012 5.12012 -5.12012 13.3115 0 18.4316l10.2402 10.2402c5.12012 5.12012 13.3125 5.12012 18.4316 0zM36.3516 188.928l29.1846 28.6719l184.832 -184.832v-29.1836h-28.6719z
M296.448 364.032l101.376 -101.376v0v-259.072h-115.2v27.6484h87.5518v215.552h-88.5762l-0.511719 89.5996h-144.384v-125.952h-27.1357v153.601h186.88v0z" />
    <glyph glyph-name="uniF182" unicode="&#xf182;" 
d="M155.136 231.936l47.6162 147.456v-294.911l-125.44 -91.1367l48.1289 147.456l-125.44 91.1357h155.136z" />
    <glyph glyph-name="uniF117" unicode="&#xf117;" 
d="M204.288 60.416l-204.288 204.288l18.4316 18.4316l185.856 -185.855l185.855 185.855l18.4326 -18.4316z" />
    <glyph glyph-name="uniF18E" unicode="&#xf18e;" 
d="M265.216 205.824h-45.5674v-58.8799c0 -10.752 1.53516 -16.3848 16.3838 -16.3848h28.6719v-45.0557s-14.8477 -1.53613 -31.7441 -1.53613c-39.4238 0 -58.8799 24.0645 -58.8799 51.2002v70.6562h-29.6963v42.4961c36.3525 3.07129 39.4238 30.208 41.9844 48.1279
h33.2803v-45.0566h45.0557v-45.0557z" />
    <glyph glyph-name="uniF194" unicode="&#xf194;" 
d="M204.8 322.048c112.641 0 204.288 -136.191 204.288 -136.191s-91.6475 -136.192 -204.288 -136.192c-112.64 0 -204.288 136.192 -204.288 136.192s91.6484 136.191 204.288 136.191zM204.8 100.864c47.1045 0 84.9922 37.8877 84.9922 84.9922
c0 47.1035 -37.8877 84.9912 -84.9922 84.9912c-47.1035 0 -84.9922 -37.8877 -84.9922 -84.9912c0 -47.1045 37.8887 -84.9922 84.9922 -84.9922zM163.84 185.856c0 22.6211 18.3389 40.96 40.96 40.96c22.6221 0 40.96 -18.3389 40.96 -40.96
c0 -22.6221 -18.3379 -40.96 -40.96 -40.96c-22.6211 0 -40.96 18.3379 -40.96 40.96z" />
    <glyph glyph-name="uniF198" unicode="&#xf198;" 
d="M348.16 327.68c79.3594 -79.3594 79.8721 -208.896 0 -288.256c-38.4004 -38.3994 -89.6006 -59.3916 -143.872 -59.3916c-54.7842 0 -105.984 21.5039 -144.384 59.9033c-79.3604 79.3604 -79.3604 208.896 0 288.257c38.3994 38.3994 89.5996 59.3916 143.872 59.3916
c54.7832 0 105.983 -21.5039 144.384 -59.9043zM289.792 117.248l48.6396 -48.1279c51.2002 59.3916 55.8086 144.896 14.8486 209.408c0 -15.3604 -2.56055 -32.2559 -5.63184 -47.1045c-6.14453 -25.5996 -20.9922 -72.7041 -57.8564 -114.176zM137.728 230.912
c-45.0557 -51.7119 -57.3438 -118.784 -55.2959 -150.016l102.4 102.911zM157.184 250.368l47.1045 -47.6162l103.424 103.424c-3.07227 0.512695 -6.65625 0.512695 -10.752 0.512695c-38.9121 0 -95.7441 -17.4082 -139.776 -56.3203zM204.288 164.864l-102.4 -102.4
c2.56055 -0.511719 5.12012 -0.511719 8.7041 -0.511719c39.4238 0 96.7686 17.4082 140.8 55.8076zM223.232 183.808l47.1035 -47.6152c46.0801 53.248 57.3438 119.296 55.2959 150.016zM296.96 333.824c-27.6484 17.4082 -59.3916 26.624 -93.1836 26.624
c-42.4961 0 -82.9443 -14.8486 -114.688 -42.4961l48.6396 -48.6406c50.1768 44.5449 114.688 64.5127 159.232 64.5127v0zM70.1436 299.008c-51.1992 -59.3916 -55.8076 -144.896 -14.8477 -209.408c-0.511719 44.0322 18.4316 110.08 63.4883 160.769zM110.08 34.3037
c28.1602 -17.4072 60.416 -27.1357 94.7197 -27.6475c42.4961 0 82.9443 14.8477 114.688 42.4961l-48.6406 48.6396c-49.6641 -43.5195 -115.199 -63.4883 -160.768 -63.4883c0.511719 0 0 0 0 0z" />
    <glyph glyph-name="uniF158" unicode="&#xf158;" 
d="M360.96 196.096v-24.0635h-168.448v-168.448h-24.0635v168.448h-168.448v24.0635h168.448v168.96h24.0635v-168.96h168.448z" />
    <glyph glyph-name="uniF145" unicode="&#xf145;" 
d="M292.864 364.544c38.3994 0 69.6318 -31.2324 69.6318 -69.6318v-73.2158v-147.969c0 -38.3994 -31.2324 -69.6318 -69.6318 -69.6318h-221.185c-38.3994 0 -69.6318 31.2324 -69.6318 69.6318v147.456v73.7285c0 38.3994 31.2324 69.6318 69.6318 69.6318h221.185z
M312.832 323.072l-52.7363 -0.512695v-60.9277h60.9287v53.248v8.19238h-8.19238zM131.072 221.696c-7.68066 -10.752 -12.2881 -23.5527 -12.7998 -36.8643c0 -34.8164 28.6719 -63.4883 63.4873 -63.4883c34.8164 0 63.4883 28.6719 63.4883 63.4883
c0 13.8242 -4.0957 26.624 -11.7764 36.8643c-11.2637 16.3838 -30.208 26.624 -51.1992 26.624c-20.9922 0 -39.4248 -10.752 -51.2002 -26.624zM327.68 73.7275v147.969h-53.248c4.6084 -11.2646 7.16797 -23.5527 7.16797 -36.8643
c0 -54.7842 -44.5439 -98.8164 -98.8154 -98.8164c-54.7842 0 -98.8164 44.5439 -98.8164 98.8164c0 12.7998 2.56055 25.5996 7.16797 36.8643h-53.7598v-147.969c0 -18.9434 15.3604 -34.3037 34.3037 -34.3037h221.696c18.9443 0 34.3037 15.3604 34.3037 34.3037z" />
    <glyph glyph-name="uniF193" unicode="&#xf193;" 
d="M95.2324 151.04v96.7676h132.607v-96.7676h-132.607zM313.856 248.32v-97.792l-60.416 31.2314v35.8398zM408.576 330.752v0l0.511719 -262.656v0h-206.336l-103.424 -88.0635v0v0v88.0635h-98.8164v262.656v0h408.064v0zM381.44 95.2324h-0.512695v208.384h-353.792
v-208.384h71.6807h27.1357v-27.1367v-29.1836l58.3682 50.1758l7.67969 6.14453h10.2402h179.2z" />
    <glyph glyph-name="uniF18F" unicode="&#xf18f;" 
d="M409.6 318.976c-11.2637 -16.8955 -25.5996 -31.7432 -40.96 -43.5195v-10.752c0 -111.104 -84.4795 -239.104 -239.104 -239.104c-47.6162 0 -91.6484 13.8242 -129.024 37.8887c6.65625 -0.512695 13.3125 -1.02441 19.9688 -1.02441
c39.4238 0 75.7754 13.3125 104.447 35.8398c-36.8633 0.512695 -67.584 25.0879 -78.3359 58.3682c5.12012 -1.02344 10.2402 -1.53613 15.8721 -1.53613c7.67969 0 14.8477 1.02441 22.0166 3.07227c-38.4004 7.67969 -67.584 41.9844 -67.584 82.4316v1.02441
c11.2637 -6.65625 24.0635 -10.2402 37.8877 -10.752c-22.5283 15.3604 -37.376 40.96 -37.376 70.1436c0 15.3604 4.0957 29.6963 11.2637 41.9844c41.4717 -50.6885 102.912 -84.4805 173.056 -87.5518c-1.53516 6.14355 -2.04785 12.2881 -2.04785 18.9434
c0 46.5928 37.376 83.9688 83.9688 83.9688c24.0635 0 46.0791 -10.2402 61.4395 -26.624c18.9443 4.0957 36.8643 10.752 53.248 20.4795c-6.14355 -19.9678 -19.4561 -36.3516 -36.8643 -46.5918c16.8965 2.04785 33.2803 6.65625 48.1279 13.3115z" />
    <glyph glyph-name="uniF109" unicode="&#xf109;" 
d="M204.288 390.144c112.64 0 204.288 -91.6475 204.288 -204.287c0 -112.641 -91.6484 -204.288 -204.288 -204.288s-204.288 91.6475 -204.288 204.288c0 112.64 91.6484 204.287 204.288 204.287zM204.288 8.7041c97.792 0 177.152 79.3604 177.152 177.152
s-79.3604 177.151 -177.152 177.151s-177.152 -79.3594 -177.152 -177.151s79.3604 -177.152 177.152 -177.152zM208.384 263.68l-64.5117 -64h171.52v-27.6475h-171.52l64.5117 -64l-19.4561 -19.4561l-96.7676 97.2803l96.7676 97.2793z" />
    <glyph glyph-name="uniF192" unicode="&#xf192;" 
d="M137.216 231.936l136.192 -68.0957l-136.192 -68.6074v136.703zM0.511719 354.816h409.601v-327.681h-409.601v327.681zM396.288 40.4482v245.76h-381.952v-245.76h381.952z" />
    <glyph glyph-name="uniF137" unicode="&#xf137;" 
d="M99.3281 187.904c0 25.4492 20.6309 46.0801 46.0801 46.0801s46.0801 -20.6309 46.0801 -46.0801s-20.6309 -46.0801 -46.0801 -46.0801s-46.0801 20.6309 -46.0801 46.0801zM211.968 187.904c0 25.4492 20.6309 46.0801 46.0801 46.0801
s46.0801 -20.6309 46.0801 -46.0801s-20.6309 -46.0801 -46.0801 -46.0801s-46.0801 20.6309 -46.0801 46.0801z" />
    <glyph glyph-name="uniF105" unicode="&#xf105;" 
d="M229.888 363.008l178.688 -178.688l-178.688 -178.688l-18.4316 18.4326l147.456 147.455h-358.912v25.6006h358.912l-147.456 147.456z" />
    <glyph glyph-name="uniF12B" unicode="&#xf12b;" 
d="M315.392 215.552l-111.104 -111.104l-111.104 111.104l17.9199 17.9199l80.3848 -80.3838v211.968h25.5996v-211.968l80.3838 80.3838zM408.576 160.768v-153.088h-12.7998v0h-382.977v0h-12.7998v153.088h25.5996v-101.888h357.376v101.888h25.6006z" />
    <glyph glyph-name="uniF142" unicode="&#xf142;" horiz-adv-x="511" 
d="M192.513 370.176l191.487 -168.96v-40.96h-60.416v-157.696h-263.168v157.696h-60.416v40.96zM165.889 29.1836v0.512695h53.248v84.9922h-53.248v-85.5049zM357.376 187.392h-0.511719v1.53613l-164.864 145.408l-164.863 -145.408v-1.53613h60.9277v-157.695h50.6875
v112.128h107.521v-112.128h50.6875v157.695h60.416z" />
    <glyph glyph-name="uniF113" unicode="&#xf113;" 
d="M216.576 159.232c4.60742 4.0957 8.19141 8.70312 11.7754 13.3115c3.07227 4.6084 4.6084 10.2402 4.6084 16.3838c0 3.07227 -0.511719 6.14453 -1.02441 9.21582c-1.02344 3.58398 -2.04785 6.14453 -4.0957 9.2168
c-2.04785 3.07129 -4.60742 5.12012 -8.19141 7.16797s-8.19238 3.07129 -13.8242 3.07129c-5.12012 0 -9.21582 -1.02344 -12.7998 -3.07129s-6.14453 -5.12012 -8.19238 -8.7041s-3.58398 -7.68066 -4.6084 -12.7998
c-1.02344 -5.12012 -1.53516 -10.2402 -1.53516 -15.8721h-26.1123c0 8.7041 1.02344 16.8955 3.58398 24.5752c2.55957 7.68066 6.14355 13.8242 10.752 19.4561c5.12012 5.12012 10.752 9.72852 17.4082 12.8008c6.65527 3.07129 14.8477 4.60742 23.5518 4.60742
c9.72754 0 17.9199 -1.53613 24.5762 -4.60742c6.65527 -3.58398 11.7754 -7.16797 15.8721 -12.2881c4.0957 -5.12012 7.16797 -10.2402 8.7041 -15.8721c1.53516 -5.63184 2.55957 -11.2646 2.55957 -16.3838c0 -6.65625 -1.02441 -12.2881 -3.07227 -17.4082
s-4.60742 -9.72852 -8.19141 -14.3359c-3.07227 -4.09668 -7.16797 -8.19238 -11.2646 -11.7764c-4.60742 -3.58398 -8.7041 -7.16797 -13.3115 -10.2402c-4.6084 -3.07129 -9.21582 -6.14355 -13.8242 -9.21582s-8.7041 -5.63184 -12.7998 -8.7041
c-4.0957 -3.07129 -7.16797 -6.14355 -10.2402 -9.21582s-5.12012 -6.14355 -6.14355 -9.72754h77.3115v-23.5527h-108.544c0.511719 13.3125 3.58398 25.0879 9.72852 34.8164c6.14355 10.2402 14.8477 18.9443 25.5996 26.1123
c5.63184 4.0957 10.752 7.67969 16.3838 11.2637s10.752 7.67969 15.3604 11.7764zM408.576 348.16v-63.4883v0v-263.168h-408.576v272.384v0v54.2725h408.576zM381.44 48.6396h-0.512695v218.112h-353.792v-218.112h354.305z" />
    <glyph glyph-name="uniF157" unicode="&#xf157;" 
d="M175.104 188.416c-40.4473 0 -73.2158 32.7676 -73.2158 73.2158v34.8164c0 40.4482 32.7686 73.2158 73.2158 73.2158c40.4482 0 73.2168 -32.7676 73.2168 -73.2158v-34.8164c-0.512695 -40.4482 -33.2803 -73.2158 -73.2168 -73.2158zM175.104 330.752
c-19.4551 0 -34.8154 -15.3604 -34.8154 -34.8164v-34.8154c0 -19.4561 15.3604 -34.8164 34.8154 -34.8164c19.4561 0 34.8164 15.3604 34.8164 34.8164v34.8154c-0.511719 19.4561 -15.8721 34.8164 -34.8164 34.8164zM349.696 3.58398h-38.4004v57.8564
c0 20.9912 -17.4082 38.3994 -38.3994 38.3994h-196.097c-20.9922 0 -38.3994 -17.4082 -38.3994 -38.3994v-57.8564h-38.4004v57.8564c0 42.4951 34.8164 76.7998 76.7998 76.7998h196.097c42.4951 0 76.7998 -34.8164 76.7998 -76.7998v-57.8564z" />
    <glyph glyph-name="uniF130" unicode="&#xf130;" 
d="M66.0479 255.488l342.528 98.3037v-290.304l-216.576 61.9521c-3.07227 -18.4326 -19.4561 -32.2568 -38.4004 -32.2568h-50.6875c-21.5039 0 -38.9121 17.4082 -38.9121 38.9121v24.5762h-10.752v-12.7998h-52.7363v129.024h52.7363v-12.8008h12.7998v-4.60742z
M165.888 132.608h0.512695v0.511719l-74.752 21.5039v-22.0156c0 -6.65625 5.11914 -11.7764 11.7754 -11.7764h50.6885c6.65527 0 11.7754 5.12012 11.7754 11.7764zM381.952 99.3281v218.112l-315.904 -90.1123v-37.8877l25.6006 -7.16797v0l91.6475 -26.1123v0z" />
    <glyph glyph-name="uniF195" unicode="&#xf195;" 
d="M312.832 189.44v-12.8008v-14.8477c0.0361328 -0.139648 0.0654297 -0.369141 0.0654297 -0.512695c0 -1.13086 -0.917969 -2.04785 -2.04785 -2.04785c-0.0185547 0 -0.0478516 0 -0.0654297 0.000976562c-7.12891 -1.5166 -18.8262 -2.89258 -26.1123 -3.07227
c-0.0478516 0.00292969 -0.125977 0.00488281 -0.173828 0.00488281c-1.20117 0 -2.5 -0.919922 -2.89844 -2.05273c-12.3857 -24.9023 -38.9932 -60.4551 -59.3916 -79.3604l-10.2402 -8.19238c-3.29883 -2.44531 -9.30859 -4.42969 -13.416 -4.42969
c-3.83789 0 -9.52539 1.75488 -12.6953 3.91797c-6.79688 4.22656 -16.6602 12.4844 -22.0166 18.4326c-12.6309 14.2471 -29.1465 39.9375 -36.8643 57.3438c-10.1465 22.0225 -22.3037 59.1816 -27.1357 82.9434c-3.58398 16.8965 -6.14355 34.3047 -9.21582 51.2002
c-0.00976562 0.211914 -0.0166016 0.556641 -0.0166016 0.768555s0.00683594 0.555664 0.0166016 0.767578h40.96c0.173828 0.0830078 0.469727 0.150391 0.662109 0.150391c0.847656 0 1.53613 -0.688477 1.53613 -1.53613
c0 -0.192383 -0.0673828 -0.489258 -0.150391 -0.662109c2.79688 -25.0127 11.5127 -64.6943 19.4561 -88.5762c8.44336 -24.9092 28.8574 -61.6094 45.5684 -81.9199l1.02344 -1.53613h0.512695c14.6738 15.0713 34.1709 42.5967 43.5195 61.4404h-0.511719
c-16.4688 8.76367 -34.3594 30.3252 -39.9365 48.1279c-3.34668 9.13477 -6.06348 24.4443 -6.06348 34.1729c0 6.78027 1.34082 17.6191 2.99219 24.1953c3.06055 13.8652 15.6758 30.6094 28.1592 37.376c7.24902 3.78027 19.7666 6.84863 27.9414 6.84863
c1.33398 0 3.49707 -0.0859375 4.82715 -0.193359c7.34668 -0.243164 18.5869 -3.22461 25.0879 -6.65527c10.5088 -5.97656 21.0605 -20.4268 23.5518 -32.2559c1.58984 -6.47559 2.88086 -17.1416 2.88086 -23.8086s-1.29102 -17.333 -2.88086 -23.8076
c-1.53613 -5.63184 -3.58398 -11.2646 -5.12012 -16.8965l-1.53613 -1.53613c-2.2207 -0.461914 -5.86621 -0.836914 -8.13477 -0.836914c-4.26855 0 -10.9453 1.29297 -14.9043 2.88574c-3.87305 1.55957 -9.14844 5.45898 -11.7764 8.70312
c-0.395508 0.472656 -0.71582 1.35547 -0.71582 1.97168c0 0.314453 0.0908203 0.807617 0.204102 1.10059c2.3252 7.31445 4.21289 19.4795 4.21289 27.1543c0 1.26758 -0.0527344 3.32422 -0.117188 4.58984c-0.223633 3.87988 -1.8291 9.84375 -3.58398 13.3115
c-2.16406 4.45605 -7.94141 8.07324 -12.8955 8.07324c-4.08105 0 -9.31445 -2.69922 -11.6807 -6.02441c-2.50293 -3.56836 -4.7959 -9.99023 -5.12012 -14.3359c-0.373047 -2.65039 -0.676758 -6.97168 -0.676758 -9.64844c0 -9.98926 3.97363 -25.1641 8.86914 -33.8721
c7.03125 -12.416 24.2344 -23.8848 38.3994 -25.5996c2.71484 -0.364258 7.13965 -0.660156 9.87793 -0.660156c4.38867 0 11.4326 0.753906 15.7227 1.68359h2.04785v0.512695z" />
    <glyph glyph-name="uniF129" unicode="&#xf129;" 
d="M148.992 252.928c-0.0283203 0.140625 -0.0517578 0.370117 -0.0517578 0.512695c0 1.41309 1.14648 2.56055 2.55957 2.56055c0.0146484 0 0.0380859 -0.000976562 0.0517578 -0.000976562h20.9922v-14.8477
c0.0283203 -0.140625 0.0517578 -0.370117 0.0517578 -0.512695c0 -1.41309 -1.14648 -2.56055 -2.55957 -2.56055c-0.0146484 0 -0.0380859 0.000976562 -0.0517578 0.000976562h-20.9922v14.8477zM148.992 222.208
c-0.0283203 0.139648 -0.0517578 0.369141 -0.0517578 0.512695c0 1.41309 1.14648 2.55957 2.55957 2.55957h0.0517578h20.9922v-79.8721c0.0283203 -0.140625 0.0517578 -0.370117 0.0517578 -0.512695c0 -1.41309 -1.14648 -2.55957 -2.55957 -2.55957h-0.0517578
h-20.9922v79.8721zM117.76 252.928c-0.0283203 0.140625 -0.0517578 0.370117 -0.0517578 0.512695c0 1.41309 1.14746 2.56055 2.56055 2.56055c0.0136719 0 0.0371094 -0.000976562 0.0517578 -0.000976562h21.5039v-110.592
c0.0283203 -0.140625 0.0517578 -0.370117 0.0517578 -0.512695c0 -1.41309 -1.14746 -2.55957 -2.56055 -2.55957h-0.0517578h-61.9521v79.8721c-0.0283203 0.139648 -0.0517578 0.369141 -0.0517578 0.512695c0 1.41309 1.14746 2.55957 2.56055 2.55957h0.0517578
h37.8877v27.6475zM117.76 163.328v-0.511719v44.5439h-14.8477h-0.0517578c-1.41309 0 -2.56055 -1.14648 -2.56055 -2.55957c0 -0.143555 0.0234375 -0.373047 0.0517578 -0.512695v-44.0322h14.8486h0.0517578c1.41309 0 2.55957 1.14648 2.55957 2.55957
c0 0.142578 -0.0224609 0.373047 -0.0517578 0.512695zM181.248 222.208c-0.0283203 0.139648 -0.0517578 0.369141 -0.0517578 0.512695c0 1.41309 1.14648 2.55957 2.55957 2.55957h0.0517578h61.9521v-108.544
c0.0292969 -0.140625 0.0517578 -0.370117 0.0517578 -0.512695c0 -1.41309 -1.14648 -2.56055 -2.55957 -2.56055c-0.0146484 0 -0.0380859 0.000976562 -0.0517578 0.000976562h-61.9521v14.8477c-0.0283203 0.140625 -0.0517578 0.370117 -0.0517578 0.512695
c0 1.41309 1.14648 2.56055 2.55957 2.56055c0.0146484 0 0.0380859 -0.000976562 0.0517578 -0.000976562h37.8887v10.752h-40.4482v79.8721zM204.8 204.288v-44.5439h14.3359c0.0146484 0 0.0380859 -0.000976562 0.0517578 -0.000976562
c1.41309 0 2.56055 1.14746 2.56055 2.56055c0 0.142578 -0.0234375 0.37207 -0.0517578 0.512695v44.5439h-14.3359h-0.0517578c-1.41309 0 -2.56055 -1.14648 -2.56055 -2.55957c0 -0.143555 0.0234375 -0.373047 0.0517578 -0.512695zM257.024 225.28h-0.512695h61.9521
v-108.544c0.0283203 -0.140625 0.0517578 -0.370117 0.0517578 -0.512695c0 -1.41309 -1.14648 -2.56055 -2.55957 -2.56055c-0.0146484 0 -0.0380859 0.000976562 -0.0517578 0.000976562h-61.9521v14.8477c-0.0283203 0.140625 -0.0517578 0.370117 -0.0517578 0.512695
c0 1.41309 1.14648 2.56055 2.55957 2.56055c0.0146484 0 0.0380859 -0.000976562 0.0517578 -0.000976562h38.4004v10.752h-40.4482v79.8721c-0.0283203 0.139648 -0.0517578 0.369141 -0.0517578 0.512695c0 1.41309 1.14648 2.55957 2.56055 2.55957h0.0517578z
M294.912 163.328l-0.511719 -0.511719v44.5439h-14.3359h-0.0527344c-1.41309 0 -2.55957 -1.14648 -2.55957 -2.55957c0 -0.143555 0.0234375 -0.373047 0.0517578 -0.512695v-44.0322h14.8477h0.0527344c1.41309 0 2.55957 1.14648 2.55957 2.55957
c0 0.142578 -0.0234375 0.373047 -0.0517578 0.512695z" />
    <glyph glyph-name="uniF19C" unicode="&#xf19c;" 
d="M27.6484 293.888v-1.02344h51.7119c7.67969 0 11.7754 -5.12012 14.3359 -9.72852c0 0 35.8398 -61.4395 35.8398 -61.9521c-2.04785 -3.58398 -55.8086 -98.8154 -55.8086 -98.8154c-3.07129 -5.12012 -6.65527 -10.2402 -14.3359 -10.2402h-51.7119
c-3.07129 0 -5.12012 1.53613 -6.65527 3.58398c-1.53613 2.56055 -1.53613 5.12012 0 8.19238l55.2959 97.2793v0.512695l-35.3281 60.9277c-1.53613 3.07227 -2.04785 6.14355 -0.511719 8.19238c1.53516 2.04785 4.0957 3.07129 7.16797 3.07129zM245.76 365.056h52.2246
c3.07129 0 5.11914 -1.02344 6.65527 -3.07129c1.53613 -2.56055 1.53613 -5.12012 0 -8.19238l-114.688 -203.264v-0.512695l73.2158 -133.119c1.53613 -3.07227 1.53613 -6.14453 0 -8.19238c-1.02441 -2.04785 -3.58398 -3.07227 -6.65625 -3.07227h-51.7119
c-7.67969 0 -11.7754 5.12012 -14.3359 9.72852c0 0 -73.7275 134.655 -73.7275 135.168c3.58398 6.65527 115.199 204.8 115.199 204.8c2.56055 4.60742 6.14453 9.72754 13.8242 9.72754z" />
    <glyph glyph-name="uniF11F" unicode="&#xf11f;" 
d="M204.288 362.496c-97.792 0 -177.152 -79.3604 -177.152 -177.152s79.3604 -177.151 177.152 -177.151s177.152 79.3594 177.152 177.151s-79.3604 177.152 -177.152 177.152zM204.288 389.632v0c112.64 0 204.288 -91.1357 204.288 -204.288
c0 -112.64 -91.6484 -204.288 -204.288 -204.288s-204.288 91.6484 -204.288 204.288c0 113.152 91.6484 204.288 204.288 204.288zM260.608 98.8164l-70.1445 69.6318v157.184h27.6484v-145.92l61.4395 -61.4395z" />
    <glyph glyph-name="uniF155" unicode="&#xf155;" 
d="M0 14.3359v37.8877h380.416v-37.8877h-380.416zM0 166.4v37.8877h380.416v-37.8877h-380.416zM0 316.416v37.8877h380.416v-37.8877h-380.416z" />
    <glyph glyph-name="uniF16B" unicode="&#xf16b;" 
d="M289.28 304.64h48.1279v-144.896h-48.1279v-156.16h-132.608h-12.2881l-96.2559 96.2559v12.2881v48.1279h-48.1279v144.384h48.1279v60.416h241.152v-60.416zM72.1924 340.48v-35.8408h193.023v35.8408h-193.023zM156.672 27.1357h108.544v180.736h-193.023v-96.2559
h84.4795v-84.4805z" />
    <glyph glyph-name="uniF12D" unicode="&#xf12d;" 
d="M0 192c0 22.6221 18.3389 40.96 40.96 40.96c22.6221 0 40.96 -18.3379 40.96 -40.96s-18.3379 -40.96 -40.96 -40.96c-22.6211 0 -40.96 18.3379 -40.96 40.96zM163.84 192c0 22.6221 18.3389 40.96 40.96 40.96c22.6221 0 40.96 -18.3379 40.96 -40.96
s-18.3379 -40.96 -40.96 -40.96c-22.6211 0 -40.96 18.3379 -40.96 40.96zM327.68 192c0 22.6221 18.3389 40.96 40.96 40.96c22.6221 0 40.96 -18.3379 40.96 -40.96s-18.3379 -40.96 -40.96 -40.96c-22.6211 0 -40.96 18.3379 -40.96 40.96z" />
    <glyph glyph-name="uniF103" unicode="&#xf103;" 
d="M204.288 389.632c112.64 0 204.288 -91.6475 204.288 -204.288c0 -112.64 -91.6484 -204.288 -204.288 -204.288s-204.288 91.6484 -204.288 204.288c0 112.641 91.6484 204.288 204.288 204.288zM204.288 8.19238c97.792 0 177.152 79.3594 177.152 177.151
s-79.3604 177.152 -177.152 177.152s-177.152 -79.3604 -177.152 -177.152s79.3604 -177.151 177.152 -177.151zM218.112 125.44l64 64l19.4561 -18.9443l-97.2803 -97.2803l-97.2803 97.2803l19.4561 18.9443l64 -64v171.008h27.6484v-171.008z" />
    <glyph glyph-name="uniF12E" unicode="&#xf12e;" 
d="M0 318.464h409.6v-271.36h-409.6v271.36zM204.8 110.08l-56.832 57.8555l-91.1357 -93.1836h295.936l-91.1357 93.1836zM280.576 186.88l101.888 -103.936v207.872zM345.088 291.328h-280.576l140.288 -142.848zM129.024 186.88l-101.889 103.937v-207.872z" />
    <glyph glyph-name="uniF19B" unicode="&#xf19b;" 
d="M207.36 238.08l25.0879 12.2881l37.376 -75.2646l-100.864 -49.6631l-37.376 75.2637l25.5996 12.7998l30.7207 -62.9756l12.2881 6.14355l-30.7207 62.9766l25.6006 12.2871l30.7197 -62.9756l12.2881 6.14355zM308.224 223.232
c0.512695 -12.2881 0.512695 -24.0645 0.512695 -35.8408c0 -11.7754 0 -22.0156 -1.02441 -35.8398c-1.02344 -13.8242 -3.58398 -27.1357 -12.7998 -37.8877c-7.44922 -8.44922 -22.5879 -16.248 -33.792 -17.4082c-9.42383 -1.29785 -24.792 -2.44434 -34.3037 -2.55957
h-51.7129c-9.51172 0.115234 -24.8799 1.26172 -34.3037 2.55957c-11.2041 1.16016 -26.3428 8.95898 -33.792 17.4082c-9.21582 10.752 -12.2881 26.1123 -12.7998 37.8877c-0.511719 11.7764 -1.02441 24.0645 -1.02441 35.8398c0 11.7764 0 22.0166 1.02441 35.8408
c1.02441 13.8232 3.58398 27.1357 12.7998 37.8877c7.44922 8.44824 22.5879 16.2471 33.792 17.4082c9.42383 1.2998 24.792 2.44629 34.3037 2.55957h51.7129c9.51172 -0.113281 24.8799 -1.25977 34.3037 -2.55957c11.3711 -1.05469 26.7393 -8.85352 34.3037 -17.4082
c9.21582 -10.752 11.7764 -24.0645 12.7998 -37.8877zM283.648 148.992c1.54297 10.4707 2.79492 27.5596 2.79492 38.1436c0 10.585 -1.25195 27.6729 -2.79492 38.1445c-3.07227 20.9922 -11.7764 29.1836 -32.7686 29.6953h-99.8398
c-20.9922 -0.511719 -29.6963 -8.70312 -32.7676 -29.6953c-1.54395 -10.4717 -2.7959 -27.5596 -2.7959 -38.1445c0 -10.584 1.25195 -27.6729 2.7959 -38.1436c3.07129 -20.9922 11.7754 -29.1846 32.7676 -29.6963h99.8398
c20.9922 0.511719 29.6963 8.7041 32.7686 29.6963z" />
    <glyph glyph-name="uniF169" unicode="&#xf169;" 
d="M297.47 -44.0303zM409.6 74.2402h-353.792v262.656h353.792v-262.656zM82.9443 101.376h299.52v208.384h-299.52v-208.384zM339.968 18.9443h-339.968v248.319h27.1357v-221.184h312.832v-27.1357z" />
    <glyph glyph-name="uniF171" unicode="&#xf171;" 
d="M151.04 364.544v-114.688c0 -80.8965 -44.5439 -150.528 -108.032 -181.248c-26.624 31.7432 -43.0078 72.7031 -43.0078 117.248c0 89.5996 65.5361 164.352 151.04 178.688zM211.456 364.544c85.5039 -14.3359 151.04 -89.0879 151.04 -178.688
c0 -44.5449 -16.3838 -85.5049 -43.0078 -117.248c-63.4883 30.7197 -108.032 100.352 -108.032 181.248v114.688zM181.248 140.288c11.2637 -47.1045 45.0557 -87.04 87.04 -113.152c-25.5996 -13.8242 -55.2959 -22.0156 -87.04 -22.0156s-61.4404 7.67969 -87.04 22.0156
c41.9844 26.624 75.7764 66.5605 87.04 113.152z" />
    <glyph glyph-name="uniF114" unicode="&#xf114;" 
d="M332.288 265.216h75.2637v-40.96h-27.1357l-27.1357 -203.775h-299.008l-27.1367 203.775h-27.1357v40.96h75.2637l93.1846 93.1846l18.9434 -18.9443l-73.7275 -73.7285h180.224l-73.7275 73.7285l18.9434 18.9443zM78.3359 48.1279h251.392l21.5049 162.816h-294.912z
M124.928 75.2637v95.2324h15.3604v-95.2324h-15.3604zM170.496 75.2637v95.2324h15.3604v-95.2324h-15.3604zM216.576 75.2637v95.2324h15.3594v-95.2324h-15.3594zM262.144 75.2637v95.2324h15.3604v-95.2324h-15.3604z" />
    <glyph glyph-name="uniF161" unicode="&#xf161;" 
d="M137.216 111.104v146.944h51.2002v-146.944h-51.2002zM225.28 111.104v146.944h51.2002v-146.944h-51.2002zM203.776 362.496c-98.3047 0 -177.664 -79.8721 -177.664 -177.664s79.8721 -177.664 177.664 -177.664s177.664 79.8721 177.664 177.664
s-79.8721 177.664 -177.664 177.664zM203.776 389.632v0c112.64 0 204.8 -91.6475 204.8 -204.8s-91.6484 -204.8 -204.8 -204.8c-113.152 0 -204.801 91.6475 -204.801 204.8s91.6484 204.8 204.801 204.8z" />
    <glyph glyph-name="uniF172" unicode="&#xf172;" 
d="M187.904 287.744v-63.4883c0 -45.0557 -24.5762 -83.4561 -59.9043 -100.864c-13.0908 15.5439 -23.7148 44.6523 -23.7148 64.9736c0 46.8477 37.4609 91.3691 83.6191 99.3789zM221.696 287.744c46.1572 -8.00977 83.6182 -52.5312 83.6182 -99.3789
c0 -20.3213 -10.624 -49.4297 -23.7148 -64.9736c-35.3271 17.4082 -59.9033 55.8086 -59.9033 100.864v63.4883zM204.8 163.328c6.14453 -26.1123 25.0879 -48.1279 48.6406 -62.9766c-12.4824 -6.82324 -34.1582 -12.3623 -48.3848 -12.3623
c-14.2256 0 -35.9014 5.53906 -48.3838 12.3623c23.04 14.8486 41.9844 36.8643 48.1279 62.9766z" />
    <glyph glyph-name="uniF11B" unicode="&#xf11b;" 
d="M31.2324 365.056l180.735 -180.735l-180.735 -180.736l-31.2324 31.2324l149.504 149.504l-149.504 149.504z" />
    <glyph glyph-name="uniF19F" unicode="&#xf19f;" 
d="M284.672 134.656h-0.511719v66.5596l31.2314 -3.07227l-16.3838 -64.5117zM294.4 220.16l-2.56055 -4.0957h-17.9199l-5.63184 -1.02441c-6.14453 -1.53613 -59.3916 -43.0078 -62.9766 -53.248c-0.09375 -3.21582 -0.169922 -8.43652 -0.169922 -11.6533
c0 -8.52539 0.535156 -22.3428 1.19434 -30.8428c3.58398 -1.02344 29.1836 0 33.792 -1.02344v-11.7764h-103.936l1.53516 10.2402c5.12012 0.511719 28.1602 1.53613 30.7207 4.0957c2.55957 2.55957 3.07129 34.3037 1.02344 40.4482
c-2.04785 6.14355 -48.6396 64.5117 -60.9277 74.2393h-31.7441v14.8486h106.496v-1.02441v0v-13.8242h-32.2559c14.3359 -20.9912 34.8164 -46.0791 43.5195 -58.3672l43.0088 38.9121h-25.6006l-3.58398 14.8477h92.6719v-1.02441v0l-6.65527 -9.72754v0zM282.112 123.904
l9.21582 -1.02441l8.19141 -0.511719l-2.04785 -15.3604l-8.19141 0.511719l-7.16797 1.02441v15.3604z" />
    <glyph glyph-name="uniF178" unicode="&#xf178;" 
d="M407.04 2.04785l-17.4082 -17.4082l-122.88 122.88c-28.6719 -26.623 -67.0723 -43.5195 -109.056 -43.5195c-87.04 0 -157.696 70.6562 -157.696 157.696s70.6562 157.695 157.696 157.695s157.695 -70.6553 157.695 -157.695
c0 -35.8398 -11.7754 -69.1201 -32.2559 -95.7441zM157.696 88.5762c73.7275 0 133.12 59.3916 133.12 133.12c0 73.7275 -59.3926 133.12 -133.12 133.12c-73.7285 0 -133.12 -59.3926 -133.12 -133.12c0 -73.7285 59.9043 -133.12 133.12 -133.12z" />
    <glyph glyph-name="uniF139" unicode="&#xf139;" 
d="M336.384 307.712h-308.224v-178.688h45.0557h27.1357v-27.1367v-19.4561l46.5928 39.9365l7.67969 6.65625h10.2402h171.52v178.688zM363.52 334.848v0v-232.96h-198.655l-91.6484 -78.3359v78.3359h-72.1914v232.96h362.495zM409.088 238.08v-177.664h-67.0723v-59.9043
l-69.6318 59.9043h-70.1436v177.664h206.848z" />
    <glyph glyph-name="uniF101" unicode="&#xf101;" 
d="M130.56 146.944c-59.9033 0 -108.544 49.1514 -109.056 109.056c0 60.416 48.6396 109.056 109.056 109.056s109.057 -48.6396 109.057 -109.056s-48.6406 -109.056 -109.057 -109.056zM130.56 339.456c-45.5674 0 -83.4561 -37.376 -83.4561 -83.4561
s37.377 -83.4561 83.4561 -83.4561c46.0801 0 83.4561 37.376 83.4561 83.4561s-37.376 83.4561 -83.4561 83.4561zM218.112 114.176c24.0635 0 43.5195 -19.9678 44.0312 -44.0322v-65.0234h-261.632v65.5361c0 24.0635 19.4561 43.5195 43.5205 43.5195h174.08z
M188.928 275.968l-72.7041 -72.1914l-43.5195 43.5195l18.4316 18.9443l25.0879 -25.6006l53.7607 53.7607z" />
    <glyph glyph-name="uniF1A1" unicode="&#xf1a1;" 
d="M322.56 232.96c1.28223 -10.7021 2.42871 -28.1348 2.56055 -38.9121v-18.4316c-0.131836 -10.7773 -1.27832 -28.21 -2.56055 -38.9121c0 0 -2.04785 -16.3838 -8.70312 -24.0645c-5.47656 -5.56445 -16.2578 -10.1514 -24.0645 -10.2393
c-33.792 -2.56055 -84.4805 -2.56055 -84.4805 -2.56055s-62.4639 0.511719 -81.9199 2.56055c-5.63184 1.02344 -19.4561 2.55957 -26.624 10.2393c-7.16797 7.68066 -8.44531 13.3623 -9.72754 24.0645s-2.42969 28.1348 -2.55957 38.9121v18.4316
c0.129883 10.7773 1.27734 28.21 2.55957 38.9121c0 0 2.04785 16.3838 9.72754 23.5518c5.47656 5.56543 16.2578 10.1523 24.0645 10.2402c33.2803 2.55957 83.9678 2.55957 83.9678 2.55957v0s50.6885 0 83.9678 -2.04785
c7.80762 -0.0878906 18.5879 -4.6748 24.0645 -10.2393c7.16797 -7.68066 9.72754 -24.0645 9.72754 -24.0645zM179.712 153.6l65.0244 33.792l-65.0244 33.792v-67.584z" />
    <glyph glyph-name="uniF134" unicode="&#xf134;" 
d="M368.64 345.6v-40.4473l-102.399 -102.4h5.63184c0.0703125 0 0.185547 0.000976562 0.255859 0.000976562c23.7412 0 43.0088 -19.2686 43.0088 -43.0088c0 -23.5996 -19.1533 -42.8672 -42.7529 -43.0078c-12.7998 0 -26.624 6.14355 -31.7441 14.8477v-41.4717
l-66.5596 -64.5127v150.528l-128 129.024v40.4473h322.56zM304.128 159.744c0 17.8047 -14.4502 32.2559 -32.2559 32.2559s-32.2559 -14.4512 -32.2559 -32.2559c0 -17.8057 14.4502 -32.2559 32.2559 -32.2559s32.2559 14.4502 32.2559 32.2559zM225.28 181.248
l121.855 123.392h-279.552l121.856 -123.392v-118.272l35.8398 37.8887v80.3838z" />
    <glyph glyph-name="uniF163" unicode="&#xf163;" 
d="M95.7441 119.296c2.04785 -2.55957 3.07227 -5.63184 4.60742 -9.21582c1.02441 -3.07227 1.53613 -6.65625 1.53613 -10.2402s-0.511719 -6.65625 -1.53613 -9.72754c-1.02344 -3.07227 -2.04785 -5.63184 -4.0957 -8.19238
c-1.53613 -2.55957 -4.0957 -4.0957 -6.65625 -5.63184c-3.07129 -1.53613 -6.14355 -2.04785 -9.72754 -2.04785c-3.07227 0 -6.14453 1.02344 -8.7041 2.04785c-3.07227 1.53613 -5.12012 3.07227 -6.65625 5.63184v0v-23.5518h-13.8232v67.0723h12.7998v-6.14453v0
c1.53613 2.56055 3.58398 4.6084 6.14355 5.63184c2.56055 1.53613 5.63184 2.04785 8.7041 2.04785c4.0957 0 7.16797 -0.511719 10.2402 -2.04785c3.07227 -1.02344 5.12012 -3.07129 7.16797 -5.63184zM87.04 94.7197c0.511719 2.04785 0.511719 4.6084 0.511719 6.14453
s0 3.58398 -0.511719 5.63184s-1.02441 3.58398 -2.04785 5.12012c-1.02441 1.53613 -2.04785 2.55957 -3.58398 3.58398c-1.53613 1.02344 -3.58398 1.53613 -5.63184 1.53613c-2.04883 0 -4.09668 -0.512695 -5.63281 -1.53613
c-1.53516 -1.02441 -2.55957 -2.04785 -3.58398 -3.58398c-1.02344 -1.53613 -1.53516 -3.07227 -2.04785 -5.12012c-0.511719 -2.04785 -0.511719 -4.0957 -0.511719 -6.14453c0 -1.53516 0 -3.58398 0.511719 -5.63184
c0.512695 -2.04785 1.02441 -3.58398 2.04785 -5.12012c1.02441 -1.53516 2.04883 -2.55957 3.58398 -3.58398c1.53613 -1.02344 3.58398 -1.53516 5.63281 -1.53516c2.04785 0 4.0957 0.511719 5.63184 1.53516c1.53613 1.02441 2.55957 2.04883 3.58398 3.58398
c1.02344 1.53613 1.53613 3.07227 2.04785 5.12012zM119.808 124.928c2.56055 1.53613 6.14453 2.04785 9.72852 2.56055c2.55957 0 5.63184 -1.02441 8.19141 -2.04785c2.56055 -1.53613 4.6084 -3.07227 6.14453 -5.63281v0v25.0889h13.8242v-69.1201h-12.7998v6.14355v0
c-1.53613 -2.55957 -3.58496 -4.6084 -6.14453 -5.63184c-2.55957 -1.02441 -5.63184 -1.53613 -8.7041 -1.53613c-3.58398 0 -6.65625 0.511719 -9.72754 2.04785c-3.07227 1.02441 -5.12012 3.07227 -7.16797 5.63184c-1.53613 2.56055 -3.07227 5.63281 -4.09668 8.7041
c-1.02344 3.58398 -1.53613 6.65625 -1.53613 10.2402s0.512695 6.65625 1.53613 9.72754c1.02441 3.07227 2.04785 5.63281 4.09668 8.19238c1.53613 2.04785 4.0957 4.0957 6.65527 5.63184zM138.752 115.712c-1.53613 0.511719 -3.58398 1.02441 -5.63184 1.02441
s-4.0957 -0.512695 -5.63184 -1.53613c-1.53613 -1.02441 -2.56055 -2.04785 -3.58398 -3.58398c-1.02441 -1.53613 -1.53613 -3.07227 -2.04785 -5.12012c-0.512695 -2.04785 -0.512695 -4.0957 -0.512695 -6.14453c0 -1.53516 0 -3.58398 0.512695 -5.63184
c0.511719 -2.04785 1.02344 -3.58398 2.04785 -5.12012c1.02344 -1.53516 2.04785 -2.55957 3.58398 -3.58398c1.53613 -1.02344 3.58398 -1.53516 5.63184 -1.53516s4.0957 0.511719 5.63184 1.53516c1.53613 1.02441 2.55957 2.04883 3.58398 3.58398
c1.02441 1.53613 1.53613 3.07227 2.04785 5.12012c0.512695 2.04785 0.512695 4.09668 0.512695 6.14453s0 4.0957 -0.512695 6.14355c-0.511719 2.04785 -1.02344 3.58398 -2.04785 5.12012s-2.04785 2.56055 -3.58398 3.58398zM171.52 76.2881h0.512695v40.4482h-8.19238
v9.21582h8.19238v4.0957c0 4.0957 1.53613 7.67969 4.0957 10.752c2.56055 2.56055 6.65625 4.09668 12.2881 4.09668h3.58398h3.58398v-10.2402c-1.53613 0.511719 -3.58398 0.511719 -5.12012 0.511719c-2.04785 0 -3.07227 -0.511719 -4.0957 -1.53613
c-0.511719 -1.02344 -1.02441 -2.55957 -1.02441 -4.60742v-3.07227h9.21582v-9.21582h-9.21582v-40.4482h-13.8242zM144.384 365.056l96.2559 -96.2559v-12.2881v-252.416v0v0h-240.64v360.96v0v0h132.608h11.7754zM216.576 256.512h-84.4805v83.9688h-108.031v-312.32
h192.512v228.352z" />
    <glyph glyph-name="uniF16D" unicode="&#xf16d;" 
d="M300.032 239.616c0 -57.3438 -32.2559 -107.008 -79.8721 -132.608l12.2881 -126.464l-81.9199 54.2725l-81.9199 -54.2725l11.2637 126.464c-47.6162 25.6006 -79.8721 75.2646 -79.8721 132.608c0 82.9434 67.0723 150.016 150.016 150.016
c82.9443 0 150.017 -67.0723 150.017 -150.016zM150.016 116.736c67.584 0 122.881 54.7832 122.881 122.88c0 68.0957 -55.2969 122.88 -122.881 122.88c-68.0957 0 -122.88 -54.7842 -122.88 -122.88c0 -68.0967 55.2959 -122.88 122.88 -122.88zM129.536 218.112
l72.1914 72.1914l18.9443 -19.4561l-91.1357 -91.1357l-50.6885 50.1758l19.4561 19.4561z" />
    <glyph glyph-name="uniF11C" unicode="&#xf11c;" 
d="M8.19238 363.52l180.224 -179.712l-180.224 -180.224l-8.19238 8.19238l172.032 172.031l-172.032 171.521z" />
    <glyph glyph-name="uniF179" unicode="&#xf179;" 
d="M260.096 232.96c25.0879 -27.1357 40.96 -63.4883 40.96 -103.424c0 -82.9443 -67.584 -150.528 -150.527 -150.528c-82.9443 0 -150.528 67.584 -150.528 150.528c0 39.9355 15.3604 76.2881 40.96 103.424v47.1045c0 60.416 49.1523 109.567 109.568 109.567
s109.567 -49.1514 109.567 -109.567v-47.1045zM150.528 362.496c-45.0566 0 -81.9199 -36.8643 -81.9199 -81.9199v-24.5762c23.5518 15.3604 51.7119 24.5762 81.9199 24.5762s58.3682 -9.21582 81.9199 -24.5762v24.5762c0 45.0557 -36.8643 81.9199 -81.9199 81.9199z
M150.528 6.65625c68.0957 0 122.88 55.2959 122.88 122.88s-55.2959 122.88 -122.88 122.88s-122.88 -55.2959 -122.88 -122.88s54.7832 -122.88 122.88 -122.88zM130.048 108.032l72.1924 72.1914l19.4561 -18.9434l-91.6484 -92.1602l-50.6875 50.6875l19.4561 19.4561z
" />
    <glyph glyph-name="uniF140" unicode="&#xf140;" 
d="M171.008 196.096l31.7441 -11.7754l-31.7441 -11.2646l-31.7441 11.2646zM244.736 196.096l31.7441 -11.7754l-31.7441 -11.2646l-31.7441 11.2646zM318.464 196.096l31.7441 -11.7754l-31.7441 -11.2646l-31.7441 11.2646zM164.864 213.504l-31.7441 -11.7764
l-31.7441 11.7764l31.7441 11.7764zM206.848 201.728l-31.7441 11.7764l31.7441 11.7764l31.7441 -11.7764zM280.576 201.728l-31.7441 11.7764l31.7441 11.7764l31.7441 -11.7764zM97.2803 196.096l31.7441 -11.7754l-31.7441 -11.2646l-31.2324 11.2646zM201.728 241.152
l-31.7432 -11.2646l-31.7441 11.2646l31.7441 11.7754zM275.456 241.152l-31.7441 -11.2646l-31.7441 11.2646l31.7441 11.7754zM101.376 155.136l31.7441 11.7764l31.7441 -11.7764l-31.7441 -11.2637zM175.104 155.136l31.7441 11.7764l31.7441 -11.7764
l-31.7441 -11.2637zM175.104 117.76l31.7441 11.7764l31.7441 -11.7764l-31.7441 -11.2637zM248.832 155.136l31.7441 11.7764l31.7441 -11.7764l-31.7441 -11.2637z" />
    <glyph glyph-name="uniF125" unicode="&#xf125;" 
d="M0 3.07227v180.735h180.736v-180.735h-180.736zM180.736 184.32v180.735h180.735v-180.735h-180.735z" />
    <glyph glyph-name="uniF18C" unicode="&#xf18c;" 
d="M44.5439 3.58398c-11.7764 0 -23.04 4.6084 -31.2324 12.7998c-17.4072 17.4082 -17.4072 45.5684 0 62.9766l157.185 157.184c-11.7764 34.8164 -3.07227 73.2158 23.04 99.3281c18.4316 18.4316 42.4961 28.1602 68.0957 28.1602
c8.19238 0 16.3838 -1.02441 24.5762 -3.07227l18.9443 -5.12012l-62.9766 -62.9756l7.16797 -37.8887l37.8887 -7.16797l63.4873 63.4883l5.12012 -18.9443c8.7041 -33.2793 -1.02344 -68.6074 -25.0879 -92.6719c-18.4316 -18.4316 -42.4961 -28.1602 -68.0957 -28.1602v0
c-9.21582 0 -18.4326 1.53613 -27.6484 4.09668l-159.231 -158.72c-8.19238 -8.19238 -19.4561 -13.3125 -31.2324 -13.3125zM259.072 341.504c-18.9443 -0.511719 -36.3525 -8.19238 -49.6641 -21.5039c-21.5039 -21.5039 -27.6484 -53.248 -15.8721 -81.4082
l3.07227 -7.16797l-167.425 -167.424c-8.70312 -8.7041 -8.70312 -22.5283 0 -31.2324c8.19238 -8.19141 22.5283 -8.19141 31.2324 0l168.448 168.448l6.65527 -2.55957c8.7041 -3.07227 17.4082 -5.12012 26.624 -5.12012c19.9688 0 38.4004 7.67969 52.2246 21.5039
c13.3115 13.3115 20.9922 31.2324 21.5039 49.6641l-41.4717 -41.4717l-64.5127 11.7754l-11.7754 64.5117z" />
    <glyph glyph-name="uniF104" unicode="&#xf104;" 
d="M204.288 389.632c113.152 0 204.8 -91.6475 204.288 -204.288c0 -112.64 -91.6484 -204.288 -204.288 -204.288s-204.288 91.6484 -204.288 204.288c0 112.641 91.6484 204.288 204.288 204.288zM204.288 8.19238c97.792 0 177.152 79.3594 177.152 177.151
s-79.3604 177.152 -177.152 177.152s-177.152 -79.3604 -177.152 -177.152s79.3604 -177.151 177.152 -177.151zM107.008 200.192l97.2803 97.2793l97.2803 -97.2793l-18.9443 -18.9443l-64.5117 64v-171.521h-27.1367v171.521l-64.5117 -64z" />
    <glyph glyph-name="uniF121" unicode="&#xf121;" 
d="M231.936 310.784c-43.5195 0 -80.3838 -30.7197 -87.0391 -74.2402l-4.6084 -26.1123l-26.624 4.09668c-4.0957 0.511719 -7.67969 1.02344 -11.2637 1.02344c-41.4727 0 -75.2646 -33.792 -75.2646 -75.2637s33.792 -75.2637 75.2646 -75.2637h204.288
c41.4717 0 75.2637 33.792 75.2637 75.2637c0 30.208 -17.9199 57.3438 -45.5684 69.1201l-14.8477 6.14355l-1.53613 15.8721c-4.6084 45.0566 -42.4961 79.3604 -88.0645 79.3604zM231.936 337.92v0c59.9043 0 109.057 -45.0557 115.2 -103.424
c36.3525 -15.8721 61.9521 -52.2236 61.9521 -94.208c0 -56.832 -46.0801 -102.4 -102.399 -102.4h-204.288c-56.832 0 -102.4 45.5684 -102.4 102.4s46.0801 102.4 102.4 102.4c5.11914 0 10.2393 -0.512695 15.3594 -1.02441
c9.21582 54.7842 56.3203 96.2559 114.176 96.2559z" />
    <glyph glyph-name="uniF110" unicode="&#xf110;" 
d="M174.08 263.68c0.141602 0.000976562 0.371094 0.00195312 0.511719 0.00195312c59.3516 0 107.521 -48.1689 107.521 -107.521v-0.000976562h-31.7441v0.00195312c0 42.1113 -34.1768 76.5176 -76.2881 76.7979v30.7197zM174.08 289.28v30.7197
c90.4395 0 163.84 -73.4004 163.84 -163.84h-31.7441v0.00390625c0 72.9189 -59.1787 132.555 -132.096 133.116zM205.312 188.928c10.7598 -10.4131 19.4922 -31.0156 19.4922 -45.9893c0 -0.589844 -0.015625 -1.54883 -0.0361328 -2.13867
c0.0107422 -0.456055 0.0195312 -1.19629 0.0195312 -1.65234c0 -15.7822 -8.9541 -37.75 -19.9873 -49.0352c-10.6641 -11.5908 -32.1016 -20.9971 -47.8506 -20.9971c-0.217773 0 -0.571289 0.00195312 -0.789062 0.00488281
c-0.295898 -0.00488281 -0.777344 -0.00878906 -1.07324 -0.00878906c-15.8018 0 -37.3408 9.4082 -48.0791 21.001c-11.0332 11.2852 -19.9873 33.2529 -19.9873 49.0352c0 0.456055 0.00878906 1.19629 0.0195312 1.65234v100.353
c-0.0273438 0.389648 -0.0498047 1.02344 -0.0498047 1.41504c0 4.72266 2.77441 11.1992 6.19336 14.457c3.37988 3.02246 9.80273 5.47559 14.3359 5.47559c4.53418 0 10.957 -2.45312 14.3369 -5.47559c3.41895 -3.25781 6.19336 -9.73438 6.19336 -14.457
c0 -0.391602 -0.0224609 -1.02539 -0.0498047 -1.41504v-100.864c0 -0.0556641 -0.000976562 -0.144531 -0.000976562 -0.200195c0 -6.74414 3.90039 -16.0596 8.70508 -20.792c4.43164 -4.68457 13.2627 -8.48633 19.7119 -8.48633s15.2803 3.80176 19.7119 8.48633
c4.52637 4.68359 8.2002 13.7695 8.2002 20.2832c0 0.195312 -0.00292969 0.513672 -0.0078125 0.708984c0.0361328 0.488281 0.0644531 1.28125 0.0644531 1.77051c0 5.81738 -3.46973 13.7402 -7.74512 17.6855c-4.58691 3.70996 -13.0977 6.72168 -18.998 6.72168
c-0.550781 0 -1.44434 -0.0292969 -1.99316 -0.0654297c-0.118164 -0.00292969 -0.308594 -0.00488281 -0.426758 -0.00488281c-4.8291 0 -11.29 2.9834 -14.4219 6.66016c-2.8291 3.14453 -5.125 9.12793 -5.125 13.3574
c0 0.128906 0.00195312 0.337891 0.00488281 0.466797c-0.00195312 0.111328 -0.00390625 0.291992 -0.00390625 0.40332c0 4.36621 2.2959 10.6074 5.12402 13.9326c3.03516 3.40918 9.20312 6.17578 13.7666 6.17578c0.298828 0 0.783203 -0.0136719 1.08203 -0.03125
c0.775391 0.03125 2.03418 0.0576172 2.81055 0.0576172c14.9453 0 35.9355 -8.28418 46.8525 -18.4902z" />
    <glyph glyph-name="uniF19D" unicode="&#xf19d;" 
d="M119.808 251.904v0.511719h32.2568c3.51172 -0.124023 7.41113 -2.87598 8.70312 -6.14355l22.0166 -38.4004l-34.8164 -61.4404c-1.29199 -3.26758 -5.19141 -6.02051 -8.7041 -6.14355h-32.2559c-0.0712891 -0.00390625 -0.1875 -0.0078125 -0.259766 -0.0078125
c-1.3623 0 -3.08105 0.920898 -3.83594 2.05566c-0.378906 0.65625 -0.686523 1.80273 -0.686523 2.56055c0 0.756836 0.307617 1.90332 0.686523 2.55957l33.792 59.9043l-21.5039 37.376c-0.378906 0.655273 -0.686523 1.80273 -0.686523 2.55957
c0 0.757812 0.307617 1.9043 0.686523 2.56055c0.847656 1.14355 2.69043 2.07129 4.11328 2.07129c0.136719 0 0.358398 -0.0107422 0.494141 -0.0234375zM254.464 295.936h32.2559c0.0722656 0.00488281 0.188477 0.0078125 0.259766 0.0078125
c1.36328 0 3.08203 -0.920898 3.83691 -2.05566c0.37793 -0.655273 0.685547 -1.80273 0.685547 -2.55957c0 -0.757812 -0.307617 -1.9043 -0.685547 -2.56055l-70.6562 -125.439l45.0557 -82.4316c0.378906 -0.65625 0.686523 -1.80273 0.686523 -2.56055
c0 -0.756836 -0.307617 -1.9043 -0.686523 -2.55957c-0.754883 -1.13477 -2.47363 -2.05566 -3.83594 -2.05566c-0.0722656 0 -0.188477 0.00292969 -0.259766 0.00683594h-32.2559c-3.43555 0.232422 -7.33496 2.98535 -8.7041 6.14453l-45.5684 83.4561l71.168 126.464
c1.19922 3.3916 5.0918 6.14355 8.68945 6.14355h0.0146484z" />
    <glyph glyph-name="uniF111" unicode="&#xf111;" 
d="M278.016 337.408h-250.88v-278.017l108.544 86.0166l16.8965 13.3115l16.8955 -13.3115l108.544 -86.0166v278.017zM305.152 364.544v0v-361.472l-152.576 120.319l-152.576 -120.319v361.472h305.152z" />
    <glyph glyph-name="uniF18D" unicode="&#xf18d;" 
d="M0 311.808v51.2002h256v-51.2002h-256zM114.176 4.6084v243.199h27.1357v-243.199h-27.1357zM220.672 136.192l-92.6719 92.6719l-92.6719 -92.6719l-19.4561 18.9434l112.128 112.128l111.616 -112.128z" />
    <glyph glyph-name="uniF17F" unicode="&#xf17f;" 
d="M204.288 60.416l-204.288 204.288h408.576z" />
    <glyph glyph-name="uniF135" unicode="&#xf135;" 
d="M212.48 92.6719l-17.9209 -17.9199l-109.567 109.568l109.567 109.567l17.9209 -17.9199l-91.6484 -91.6475zM304.128 92.6719l-18.4316 -17.9199l-109.568 109.568l109.568 109.567l18.4316 -17.9199l-91.6475 -91.6475zM204.8 -19.9678
c-112.64 0 -204.288 91.6475 -204.288 204.288c0 112.64 91.6484 204.288 204.288 204.288c112.641 0 204.288 -91.6484 204.288 -204.288c0 -112.641 -91.6475 -204.288 -204.288 -204.288zM204.8 363.008c-98.3037 0 -178.688 -80.3838 -178.688 -178.688
c0 -98.3047 80.3838 -178.688 178.688 -178.688s178.688 80.3838 178.688 178.688c0 98.3037 -80.3848 178.688 -178.688 178.688z" />
    <glyph glyph-name="uniF15E" unicode="&#xf15e;" 
d="M158.72 276.992l18.4326 17.9199l109.567 -109.568l-109.567 -109.567l-18.4326 17.9199l91.6484 91.6475zM204.288 389.632c112.64 0 204.288 -91.6475 204.288 -204.288c0 -112.64 -91.6484 -204.288 -204.288 -204.288s-204.288 91.6484 -204.288 204.288
c0 112.641 91.6484 204.288 204.288 204.288zM204.288 6.65625c98.3037 0 178.688 79.8721 178.688 178.688c0 98.8164 -80.3838 178.688 -178.688 178.688s-178.688 -80.3838 -178.688 -178.688c0 -98.3037 79.8721 -178.688 178.688 -178.688z" />
    <glyph glyph-name="uniF167" unicode="&#xf167;" 
d="M189.952 139.776l-9.72852 -38.4004c-3.85254 -12.0254 -12.5693 -30.376 -19.4561 -40.96l-11.7754 4.0957c-0.811523 5.66309 -1.46973 14.9004 -1.46973 20.6211c0 6.64746 0.887695 17.3652 1.98145 23.9229l18.9443 80.3848
c-2.55176 6.02344 -4.62305 16.2227 -4.62305 22.7646c0 0.358398 0.00683594 0.94043 0.0146484 1.29883c0 22.5283 14.8486 38.9121 28.6719 38.9121c13.8242 0 20.4805 -8.7041 20.4805 -22.5283c0 -13.8232 -8.7041 -34.8154 -13.3125 -53.7598
c-0.322266 -1.4209 -0.583984 -3.75781 -0.583984 -5.21582c0 -13.001 10.5508 -23.5518 23.5518 -23.5518c0.585938 0 1.53613 0.0429688 2.12012 0.0957031c28.6729 0 50.6885 35.3281 50.6885 73.7275c0 38.4004 -22.0156 65.5361 -67.584 65.5361
s-72.7041 -34.8154 -72.7041 -70.1436v-0.196289c0 -11.1641 5.27539 -27.5908 11.7764 -36.668c0.693359 -0.735352 1.25586 -2.15137 1.25586 -3.16211c0 -0.40918 -0.103516 -1.05762 -0.232422 -1.44629l-4.60742 -18.4316
c-1.02441 -3.07227 -2.56055 -3.58398 -5.63281 -2.04785c-19.9678 9.21582 -32.7676 38.9121 -32.7676 62.4639c0 51.2002 36.8643 97.792 106.496 97.792c55.8076 0 98.8164 -37.376 98.8164 -93.1836c0 -55.8086 -34.8164 -100.353 -83.4561 -100.353
c-16.3848 0 -31.7441 8.19238 -36.8643 18.4326z" />
    <glyph glyph-name="uniF13A" unicode="&#xf13a;" 
d="M204.288 390.144c112.64 0 204.288 -91.6475 204.288 -204.287c0 -112.641 -91.6484 -204.288 -204.288 -204.288s-204.288 91.6475 -204.288 204.288c0 112.64 91.6484 204.287 204.288 204.287zM204.288 8.7041c97.792 0 177.152 79.3604 177.152 177.152
s-79.3604 177.151 -177.152 177.151s-177.152 -79.3594 -177.152 -177.151s79.3604 -177.152 177.152 -177.152zM200.192 263.68l18.9434 19.4561l97.2803 -97.2793l-97.2803 -97.2803l-18.9434 19.4561l64 64h-171.009v27.6475h171.009z" />
    <glyph glyph-name="uniF18B" unicode="&#xf18b;" 
d="M0 310.272v54.2715h396.8v-54.2715h-396.8zM0 157.184v54.2725h396.8v-54.2725h-396.8zM0 3.58398v54.2725h396.8v-54.2725h-396.8zM68.0957 233.984v54.2715h328.704v-54.2715h-328.704zM68.0957 80.3838v54.2725h328.704v-54.2725h-328.704z" />
    <glyph glyph-name="uniF180" unicode="&#xf180;" 
d="M204.288 264.704l204.288 -204.288h-408.576z" />
    <glyph glyph-name="uniF17E" unicode="&#xf17e;" 
d="M165.888 259.584l-74.752 74.752l-74.752 -74.752l-15.8721 15.3604l90.624 90.624l90.1123 -90.624zM91.1357 4.6084l-90.624 90.1113l15.8721 15.3604l74.752 -74.752l74.752 74.752l15.3604 -15.3604z" />
    <glyph glyph-name="uniF16F" unicode="&#xf16f;" 
d="M289.792 244.224c13.3115 0 24.0645 -10.752 24.5762 -24.0635v-96.7686l-24.0645 -24.0635v-84.4805c0 -6.65527 -5.63184 -12.2881 -12.2881 -12.2881h-48.1279c-6.65527 0 -12.2881 5.63281 -12.2881 12.2881v168.96l-60.416 -60.416l-60.416 60.416v-168.96
c0 -6.65527 -5.63184 -12.2881 -12.2871 -12.2881h-48.1289c-6.65527 0 -12.2871 5.63281 -12.2871 12.2881v84.4805l-24.0645 24.0635v96.7686c0 13.3115 10.752 24.0635 24.0645 24.0635h72.7031l60.416 -60.416l59.9043 60.416h72.7041zM60.416 349.696
c-18.4316 0 -32.7676 -14.8486 -32.7676 -32.7686s14.8477 -32.7676 32.7676 -32.7676s32.7676 14.8477 32.7676 32.7676s-14.8477 32.7686 -32.7676 32.7686zM60.416 365.056v0c26.624 0 48.1279 -22.0156 48.1279 -48.1279c0 -26.624 -21.5039 -48.1279 -48.1279 -48.1279
s-48.1279 21.5039 -48.1279 48.1279s21.5039 48.1279 48.1279 48.1279zM253.44 349.696c-17.9209 0 -32.7686 -14.8486 -32.7686 -32.7686s14.8477 -32.7676 32.7686 -32.7676c17.9199 0 32.7676 14.8477 32.7676 32.7676s-14.8477 32.7686 -32.7676 32.7686z
M253.44 365.056v0c26.624 0 48.1279 -22.0156 48.1279 -48.1279c0 -26.624 -21.5039 -48.1279 -48.1279 -48.1279s-48.1289 21.5039 -48.1289 48.1279s21.5049 48.1279 48.1289 48.1279z" />
    <glyph glyph-name="uniF13E" unicode="&#xf13e;" 
d="M100.352 301.568c18.9443 -38.4004 43.0088 -72.7041 43.0088 -72.7041l-15.3604 -208.896s-14.3359 -16.3838 -56.3203 -16.3838v0v0c-41.9834 0 -56.3193 16.3838 -56.3193 16.3838l-15.3604 208.896s24.0645 34.3037 43.0078 73.2158
c12.2881 24.5762 19.9678 49.1523 23.5518 62.9756v-177.664c-6.65527 -2.04785 -11.7754 -8.19141 -11.7754 -15.3594c0 -9.21582 7.16797 -16.3838 16.3838 -16.3838s16.3838 7.16797 16.3838 16.3838c0 7.16797 -4.60742 12.7998 -10.752 15.3594v177.152
c4.09668 -14.3359 11.2646 -38.4004 23.5518 -62.9756z" />
    <glyph glyph-name="uniF19E" unicode="&#xf19e;" 
d="M354.304 116.224l-0.511719 113.152c5.63184 -1.02441 48.6396 -5.12012 53.248 -5.12012l-28.1602 -110.08zM371.712 262.144l-6.14355 -6.65527h-29.1846c-3.58398 -1.02441 -7.16797 -1.53613 -9.21582 -2.04785
c-9.72754 -2.56055 -100.864 -73.2168 -107.008 -90.624c-1.02441 -5.63281 0 -64 1.53613 -72.7041c6.14355 -1.53613 49.1514 0 57.3438 -1.53613l-1.02441 -17.9199c-7.67969 0.511719 -62.9756 0.511719 -94.208 0.511719
c-15.8721 0 -67.0713 -2.04785 -82.9434 -1.53613l3.07129 16.8965c8.7041 0.511719 44.5449 -1.53613 52.2246 6.65527c4.0957 4.09668 3.07227 59.3926 1.53613 68.6084c-3.07227 9.72754 -82.9443 110.08 -103.937 126.464h-53.7598v25.0879h181.76v-1.53613h0.512695
l-0.512695 -4.0957v-18.9443h-54.7842c24.5762 -35.3271 59.3926 -78.8477 74.2402 -99.3271l73.2158 66.0479h-43.5195l-6.14453 25.0879h159.232l-1.02441 -2.04785h0.512695l-11.7764 -16.3848v0zM350.208 98.3037l15.8721 -2.04785l13.8242 -0.511719l-3.58398 -26.1123
l-13.3125 1.02441l-12.7998 1.02344v26.624z" />
    <glyph glyph-name="uniF149" unicode="&#xf149;" 
d="M197.12 275.968l17.9199 17.9199l109.568 -109.567l-109.568 -109.568l-17.9199 17.9199l91.6475 91.6484zM105.472 275.968l18.4326 17.9199l109.567 -109.567l-109.567 -109.568l-18.4326 17.9199l91.6484 91.6484zM204.8 388.608
c112.641 0 204.288 -91.6484 204.288 -204.288c0 -112.641 -91.6475 -204.288 -204.288 -204.288c-112.64 0 -204.288 91.6475 -204.288 204.288c0 112.64 91.6484 204.288 204.288 204.288zM204.8 5.63184c98.3037 0 178.688 80.3838 178.688 178.688
c0 98.3037 -80.3848 178.688 -178.688 178.688s-178.688 -80.3838 -178.688 -178.688c0 -98.3047 80.3838 -178.688 178.688 -178.688z" />
    <glyph glyph-name="uniF151" unicode="&#xf151;" 
d="M407.552 79.8721c0.512695 0 1.53613 0 1.02441 0v-38.4004c-10.2402 -1.53613 -22.0166 -2.04785 -32.2559 0.512695c-8.19238 2.04785 -14.8486 5.11914 -21.5039 10.752c-5.63281 5.12012 -8.7041 12.7998 -11.2646 19.9678
c-4.60742 14.3359 -3.07129 30.7197 -3.07129 45.5684c0 30.208 -1.02441 60.9277 -2.56055 91.1357c-1.02344 14.8477 -2.55957 29.6953 -5.12012 44.5439c-1.02344 7.16797 -2.55957 14.3359 -5.12012 20.9922c-1.53613 5.12012 -5.12012 14.3359 -11.7754 14.3359
h3.07129h32.2568c6.65527 0 11.7754 1.02344 16.3838 -5.12012c4.0957 -5.12012 5.63184 -12.7998 7.16797 -18.9443c2.04785 -7.16797 3.07227 -14.8477 4.0957 -22.0156c4.0957 -29.6963 5.12012 -59.9043 5.63184 -89.6006
c0.512695 -15.3594 0.512695 -30.208 0.512695 -45.5674c0 -7.16797 -0.512695 -15.3604 3.58398 -21.5039c4.0957 -7.16797 11.7754 -7.16797 18.9434 -6.65625zM303.104 80.3838v0c-37.376 -0.511719 -74.752 -0.511719 -111.104 0.512695
c-4.6084 0 -8.7041 0 -13.3115 1.02344c-5.63281 1.53613 -11.2646 4.6084 -15.8721 8.7041c-11.2646 9.21582 -19.4561 21.5039 -27.1367 33.2803c-15.8721 24.5762 -28.6719 52.2236 -40.96 78.8477c-12.2881 26.1123 -24.5762 52.7363 -38.3994 78.3359
c-7.16797 12.7998 -14.8486 25.0879 -23.5527 36.8643c-8.19141 10.752 -18.9434 22.0156 -32.2559 26.1123c6.65625 0 13.3125 -0.512695 19.9688 -0.512695c31.7432 -0.511719 63.4873 -1.02344 95.2314 -4.0957c31.2324 -3.07227 63.4883 -7.67969 90.1123 -24.5762
c26.1113 -16.8955 40.4482 -46.5918 50.6875 -74.752c10.2402 -28.1602 16.8965 -57.8555 23.5527 -87.04c3.07129 -13.8242 6.14355 -27.6475 9.72754 -41.4717c2.04785 -6.65625 3.58398 -13.3125 6.14355 -19.9678c1.02441 -3.07227 3.07227 -10.2402 7.16797 -11.2646z
" />
    <glyph glyph-name="uniF131" unicode="&#xf131;" 
d="M104.96 96.2559c22.0156 0 42.4961 9.21582 56.832 23.5518h31.7441c-18.4326 -29.1836 -51.2002 -49.1514 -88.5762 -49.1514c-57.8564 0 -104.96 47.1035 -104.96 104.96c0 57.8555 47.1035 104.96 104.96 104.448c37.8877 0 71.168 -20.4805 89.5996 -51.2002
h-31.2314c-14.3359 15.8721 -35.3281 26.1113 -58.3682 26.1113c-43.5195 0 -79.3604 -35.3271 -79.3604 -79.3594c0 -43.5205 35.3281 -79.3604 79.3604 -79.3604zM289.792 294.4l118.784 -118.784l-118.784 -118.784l-17.9199 17.9199l88.5762 88.0645h-255.488v25.5996
h255.488l-88.5762 88.5762z" />
    <glyph glyph-name="uniF146" unicode="&#xf146;" 
d="M290.304 293.888c11.8701 0 21.5039 -9.63379 21.5039 -21.5039v-171.008c0 -11.8701 -9.63379 -21.5039 -21.5039 -21.5039v0h-171.008c-11.8701 0 -21.5039 9.63379 -21.5039 21.5039v171.008c0 11.8701 9.63379 21.5039 21.5039 21.5039h171.008zM287.744 237.568
v21.5039c0 5.93457 -4.81738 10.752 -10.752 10.752v0h-21.5039c-5.93555 0 -10.752 -4.81738 -10.752 -10.752v-21.5039c0 -5.93555 4.81641 -10.752 10.752 -10.752v0h21.5039c5.93457 0 10.752 4.81641 10.752 10.752zM245.76 186.88
c-0.0429688 4.72852 -1.64844 12.0693 -3.58398 16.3838c-5.99023 13.3594 -22.7334 24.2012 -37.374 24.2012c-22.6104 0 -40.96 -18.3506 -40.96 -40.9609c0 -22.6094 18.3496 -40.96 40.96 -40.96s40.96 18.3506 40.96 40.96
c0 0.104492 -0.000976562 0.272461 -0.00195312 0.375977zM286.72 104.448v99.3281h-17.9199c1.13086 -4.41602 2.04785 -11.6982 2.04785 -16.2559c0 -36.1758 -29.3594 -65.5361 -65.5361 -65.5361c-36.1758 0 -65.5352 29.3604 -65.5352 65.5361
c0 4.55762 0.916992 11.8398 2.04785 16.2559h-18.9443v-99.3281h163.84z" />
    <glyph glyph-name="uniF11A" unicode="&#xf11a;" 
d="M180.224 4.0957l-180.224 180.225l180.224 180.735l16.3848 -16.3838l-164.353 -164.352l164.353 -163.84z" />
    <glyph glyph-name="uniF128" unicode="&#xf128;" 
d="M121.344 307.2c0 5.12012 4.6084 5.12012 4.6084 5.12012h35.8398v-25.0879c0 -5.12012 -4.6084 -5.12012 -4.6084 -5.12012h-35.8398v25.0879zM121.344 254.976c0 5.12012 4.6084 5.12012 4.6084 5.12012h35.8398v-135.168
c0 -5.12012 -4.6084 -5.12012 -4.6084 -5.12012h-35.8398v135.168zM68.6084 307.2c0 5.12012 4.60742 5.12012 5.11914 5.12012h35.8408v-186.88c0 -5.12012 -4.6084 -5.12012 -4.6084 -5.12012h-104.96v135.168c0 5.12012 4.6084 5.12012 4.6084 5.12012h64v46.5918z
M68.6084 155.136h0.511719v75.2646h-24.5762s-4.6084 0 -4.6084 -5.12012v-75.2646h24.0645s4.6084 0 4.6084 5.12012zM176.128 254.976c0 5.12012 4.6084 5.12012 4.6084 5.12012h104.96v-183.296c0 -5.12012 -4.6084 -5.12012 -4.6084 -5.12012h-104.96v25.0879
c0 5.12012 4.6084 5.12012 4.6084 5.12012h64v17.9199h-68.6084v135.168zM215.552 225.28v-74.752h24.5762s4.6084 0 4.6084 5.12012v74.752h-24.5762s-4.6084 0 -4.6084 -5.12012zM303.616 260.096h104.96v-183.296c0 -5.12012 -4.6084 -5.12012 -4.6084 -5.12012h-104.96
v25.0879c0 5.12012 4.6084 5.12012 4.6084 5.12012h64v17.9199h-68.6084v135.168c0 5.12012 4.6084 5.12012 4.6084 5.12012zM368.128 155.136v75.2646h-24.5762s-4.60742 0 -4.60742 -5.12012v-75.2646h24.5752s4.6084 0 4.6084 5.12012z" />
    <glyph glyph-name="uniF176" unicode="&#xf176;" 
d="M27.6484 364.544c197.632 0 357.888 -160.256 357.376 -357.376h-68.6084c0 159.232 -129.024 288.768 -288.768 288.768v68.6084zM27.6484 227.328c121.344 0 220.159 -98.8164 220.159 -220.16h-68.6074c0 83.9678 -68.0967 151.552 -151.552 151.552v68.6084z
M0 27.6484c0 26.5801 21.5479 48.1279 48.1279 48.1279s48.1279 -21.5479 48.1279 -48.1279c0 -26.5811 -21.5479 -48.1289 -48.1279 -48.1289s-48.1279 21.5479 -48.1279 48.1289z" />
    <glyph glyph-name="uniF174" unicode="&#xf174;" 
d="M243.712 338.432c91.1357 0 165.376 -74.2393 164.864 -165.376c0 -44.0312 -16.8965 -85.5039 -48.1279 -116.735l-18.4326 18.4316c26.624 26.1123 40.96 60.9277 40.96 98.3037c0 76.8008 -62.4639 139.265 -139.264 139.265s-139.264 -62.4639 -139.264 -139.265
v-93.1836l60.9277 60.9277l18.4316 -18.4316l-92.1592 -92.1602l-92.1602 92.1602l18.4316 18.4316l60.416 -60.9277v93.1836c0 91.1367 74.2402 165.376 165.376 165.376z" />
    <glyph glyph-name="uniF185" unicode="&#xf185;" 
d="M225.792 225.792h-0.511719v25.0879c0 11.7764 -9.72852 21.5039 -21.5039 21.5039c-11.7764 0 -21.5039 -9.72754 -21.5039 -21.5039v-130.048c-0.512695 -50.1758 -40.9609 -90.1123 -91.1367 -90.1123s-91.1357 40.96 -91.1357 91.1367v56.832h69.6318v-56.3203
c0 -11.7764 9.72852 -21.5039 21.5039 -21.5039c11.7764 0 21.5039 9.72754 21.5039 21.5039v132.096c1.53613 49.1523 41.9844 88.0645 91.1367 88.0645c49.6641 0 89.5996 -39.4248 91.1357 -88.5762v-28.6719l-41.4717 -12.2881zM338.432 178.688h70.1445v-56.832
c0 -50.1768 -40.96 -91.1367 -91.1357 -91.1367c-50.1768 0 -90.624 40.4482 -91.1367 90.624v56.832l27.6484 -12.7998l41.4717 12.2881v-57.3438c0 -11.7764 9.72852 -21.5039 21.5039 -21.5039c11.7764 0 21.5039 9.72754 21.5039 21.5039v58.3682z" />
    <glyph glyph-name="uniF199" unicode="&#xf199;" 
d="M133.12 120.832c-32.2559 0 -64.5117 12.2881 -89.0879 36.8643c-49.1523 49.1514 -49.1523 128.512 0 177.664c24.5762 24.5752 56.832 36.8633 89.0879 36.8633s64.5117 -12.2881 89.0879 -36.8633c49.1523 -49.1523 49.1523 -128.513 0 -177.664
c-24.5762 -24.5762 -56.832 -36.8643 -89.0879 -36.8643zM210.944 324.608c-20.4805 20.9912 -48.1279 32.2559 -77.8242 32.2559c-26.624 0 -52.2236 -9.72852 -72.1924 -27.1367l155.137 -155.136c37.8877 43.0078 35.8398 109.057 -5.12012 150.017zM50.1758 318.976
c-37.8877 -43.5195 -36.3516 -109.056 5.63184 -150.527c20.4805 -20.9922 48.1279 -32.2559 77.8242 -32.2559c26.624 0 52.2246 9.72754 72.1924 27.1357zM265.728 379.392c72.7041 -73.2158 72.7041 -192 -0.511719 -264.703
c-36.3516 -36.3525 -83.9678 -54.7842 -132.096 -54.7842c-47.6162 0 -95.7441 18.4316 -132.096 54.7842l19.4561 19.4551c61.9512 -62.4639 163.327 -62.4639 225.792 0c62.4639 61.9521 62.4639 163.328 0 225.792zM67.584 3.58398v27.1357h130.56v-27.1357h-130.56z" />
    <glyph glyph-name="uniF13B" unicode="&#xf13b;" 
d="M210.944 275.968l5.63184 -4.60742c1.90625 -1.95117 4.65918 -5.3916 6.14355 -7.68066c1.72461 -2.66992 4.01855 -7.25781 5.12012 -10.2393c1.11914 -3.7334 2.03711 -9.92676 2.04785 -13.8242c0.00878906 -0.316406 0.0166016 -0.829102 0.0166016 -1.14551
c0 -6.73242 -2.98926 -16.7705 -6.67188 -22.4062l-6.65625 -7.68066l-8.19238 -7.16797l-4.60742 -5.63184c-1.41309 -1.88379 -2.56055 -5.3252 -2.56055 -7.67969c-0.00390625 -0.107422 -0.00683594 -0.280273 -0.00683594 -0.386719
c0 -2.13965 1.14941 -5.17773 2.56738 -6.78125l4.0957 -4.6084l9.21582 -7.67969c4.74023 -3.73926 11.6211 -10.6201 15.3604 -15.3604c3.4043 -5.34766 6.16699 -14.832 6.16699 -21.1719c0 -0.374023 -0.0107422 -0.981445 -0.0234375 -1.35645v-0.0146484
c0 -12.2217 -7.79883 -28.2715 -17.4082 -35.8252c-11.9466 -10.5814 -29.3545 -16.0426 -52.2236 -16.3838c-22.8691 -0.341146 -37.0345 3.75488 -42.4961 12.2881c-7.77832 5.29004 -14.2012 17.2178 -14.3359 26.624c0.179688 4.96094 2.24414 12.5303 4.6084 16.8955
c3.21582 5.72852 10.5566 12.8398 16.3838 15.8721c7.13281 4.1709 19.5195 8.75781 27.6475 10.2402l24.0645 2.56055c-1.60059 2.14355 -3.89453 5.81348 -5.12012 8.19141c-1.41992 2.43945 -2.57324 6.70996 -2.57324 9.5332
c0 0.195312 0.00585938 0.511719 0.0136719 0.707031c-0.00683594 0.165039 -0.0117188 0.433594 -0.0117188 0.599609c0 1.58301 0.463867 4.06738 1.03516 5.54395l1.02441 4.6084h-8.7041c-0.577148 -0.0292969 -1.51562 -0.0517578 -2.09375 -0.0517578
c-10.3115 0 -24.2832 6.21582 -31.1865 13.876c-6.50195 6.60059 -11.7783 19.4775 -11.7783 28.7432c0 0.121094 0.000976562 0.319336 0.00292969 0.44043c0.237305 12.0898 7.80664 28.376 16.8955 36.3525c5.84961 4.94238 16.6299 10.4473 24.0645 12.2881
c6.28809 1.34082 16.6104 2.4873 23.04 2.55957h54.7832l-16.8955 -9.72754h-16.3838v-0.512695zM221.696 119.296c0.000976562 0.0849609 0.00195312 0.222656 0.00195312 0.307617c0 5.55566 -2.9834 13.4463 -6.6582 17.6123
c-5.7832 5.49316 -15.876 13.5205 -22.5283 17.9199h-17.4082l-17.4072 -4.0957l-5.63184 -2.55957l-7.68066 -5.12012c-2.10547 -1.95312 -4.8584 -5.62402 -6.14355 -8.19238c-1.69727 -3.06641 -3.0752 -8.39844 -3.0752 -11.9033
c0 -0.106445 0.000976562 -0.27832 0.00292969 -0.384766c0.0146484 -8.41211 5.74902 -18.9639 12.7998 -23.5518c7.91797 -5.3916 22.1191 -9.7666 31.6982 -9.7666c0.578125 0 1.5166 0.0166016 2.09375 0.0380859
c0.553711 -0.0234375 1.45312 -0.0429688 2.00684 -0.0429688c8.27832 0 20.4531 3.91895 27.1777 8.74707c5.65234 4.23926 10.2393 13.415 10.2393 20.4805zM183.296 198.656c5.81934 0.0830078 13.8467 3.52344 17.9199 7.67969
c1.90234 2.69727 3.9668 7.51465 4.6084 10.752c0.275391 2.53613 0.504883 6.66504 0.511719 9.21582c-0.135742 9.44238 -3.80664 23.8936 -8.19238 32.2559c-2.00781 4.1875 -6.5957 9.92188 -10.2393 12.8008c-3.65234 2.70508 -10.3047 4.99902 -14.8486 5.12012
c-6.20996 -0.0244141 -14.4678 -3.92383 -18.4316 -8.7041c-3.40039 -4.83008 -6.16016 -13.5449 -6.16016 -19.4521c0 -0.283203 0.0078125 -0.744141 0.0166016 -1.02832c0.236328 -9.0918 4.13574 -22.8545 8.70312 -30.7197
c2.25 -4.13574 7.06738 -9.87012 10.752 -12.7998c3.60938 -2.83008 10.2607 -5.12598 14.8467 -5.12598c0.141602 0 0.37207 0.00292969 0.513672 0.00585938zM317.952 195.584v-13.8242h-28.1602v-28.6719h-13.8242v28.6719h-28.6719v13.8242h28.6719v28.1602h13.8242
v-28.1602h28.1602z" />
    <glyph glyph-name="uniF14D" unicode="&#xf14d;" 
d="M160.768 111.616h-37.376v118.271h37.376v-118.271zM142.336 246.272v0c-11.5879 0 -20.9922 9.4043 -20.9922 20.9912c0 11.5879 9.4043 20.9922 20.9922 20.9922s20.9922 -9.4043 20.9922 -20.9922c0 -11.5869 -9.4043 -20.9912 -20.9922 -20.9912zM297.984 111.616
h-37.376v57.8555c0 13.8242 0 31.2324 -18.9443 31.2324s-21.5039 -14.8477 -21.5039 -30.208v-58.8799h-37.376v118.271h35.3281v-16.8955h1.02344c5.86133 10.7686 20.5684 19.5088 32.8291 19.5088c0.548828 0 1.43945 -0.0234375 1.9873 -0.0527344
c36.8643 0 44.0322 -24.0645 44.0322 -55.8086v-65.0234z" />
    <glyph glyph-name="uniF10C" unicode="&#xf10c;" 
d="M147.968 216.064c12.2881 16.3838 33.2803 27.1357 56.832 27.1357s44.5439 -10.752 56.832 -27.1357h-113.664zM137.216 188.928h135.681c0.511719 -2.04785 0.511719 -4.0957 0.511719 -6.65527v-20.4805h-136.704v20.4805c0 2.04785 0 4.60742 0.511719 6.65527z
M136.704 113.664v20.4795h136.704v-20.4795c0 -2.04785 0 -4.6084 -0.511719 -6.65625h-135.681c-0.511719 2.04785 -0.511719 4.0957 -0.511719 6.65625zM204.8 52.2236c-23.5518 0 -44.5439 10.752 -56.832 27.1367h113.664
c-12.2881 -16.3848 -33.2803 -27.1367 -56.832 -27.1367zM109.568 216.064l-73.7285 -28.6729c-4.0957 -1.53516 -7.67969 -4.0957 -10.752 -7.16797c-3.07227 -3.58398 -5.63184 -7.16797 -7.16797 -11.2637s-2.55957 -8.19238 -2.55957 -12.7998
c0 -4.6084 1.02344 -8.7041 2.55957 -12.7998c1.53613 -4.6084 4.0957 -8.19238 7.16797 -11.2646c3.58398 -3.07129 7.16797 -5.63184 11.2637 -7.16797c4.09668 -1.53613 8.19238 -2.55957 12.8008 -2.55957c4.60742 0 9.21582 1.02344 13.3115 2.55957
c4.6084 1.53613 8.19238 4.09668 11.2637 7.16797c3.07227 3.07227 5.63281 6.65625 7.16895 10.752zM136.704 243.2v0l-41.9844 -105.984c-2.55957 -5.63184 -6.14355 -11.2637 -10.752 -15.8721c-4.60742 -4.60742 -10.2402 -8.19141 -15.8721 -10.752
c-6.14355 -2.55957 -12.7998 -3.58398 -18.9434 -3.58398v0v0c-6.65625 0 -12.8008 1.02441 -18.9443 3.58398c-5.63184 2.56055 -11.2637 6.14453 -15.8721 10.752c-4.6084 4.6084 -8.19238 10.2402 -10.752 15.8721c-2.55957 6.14453 -3.58398 12.2881 -3.58398 18.9443
c0 6.14355 1.02441 12.7998 3.58398 18.9434c2.55957 5.63281 6.14355 11.2646 10.752 15.8721c4.6084 4.6084 10.2402 8.19238 15.8721 10.752zM300.032 216.064l29.1836 -73.2168c1.53613 -4.0957 4.0957 -7.67969 7.16797 -10.752
c3.07227 -3.07129 6.65625 -5.63184 10.752 -7.16797c4.09668 -1.53613 8.19238 -2.55957 12.7998 -2.55957c4.6084 0 9.2168 1.02344 13.3125 2.55957s7.67969 4.09668 10.752 7.16797c3.07227 3.58398 5.63184 7.16797 7.16797 11.2646
c1.53613 4.0957 2.55957 8.19141 2.55957 12.7998c0 4.0957 -1.02344 8.7041 -2.55957 12.7998c-1.53613 4.6084 -4.0957 8.19238 -7.16797 11.2637c-3.07227 3.07227 -6.65625 5.63281 -10.752 7.16797zM272.896 243.2v0l105.983 -41.4727
c5.63184 -2.55957 11.2637 -6.14355 15.8721 -10.752c4.6084 -4.60742 8.19238 -10.2393 10.752 -15.8721c2.56055 -6.14355 3.58398 -12.2871 3.58398 -18.9434s-1.02344 -12.7998 -3.58398 -18.9443c-2.55957 -5.63184 -6.14355 -11.2637 -10.752 -15.8721
c-4.6084 -4.60742 -10.2402 -8.19141 -15.8721 -10.752c-6.14355 -2.55957 -12.7998 -3.58398 -18.9443 -3.58398v0v0c-6.65527 0 -12.7998 1.02441 -18.9434 3.58398c-5.63184 2.56055 -11.2646 6.14453 -15.8721 10.752c-4.6084 4.6084 -8.19238 10.2402 -10.752 15.8721z
M170.496 295.936c-6.65625 0 -11.7764 -5.11914 -11.7764 -11.7754s5.12012 -11.7764 11.7764 -11.7764s11.7764 5.12012 11.7764 11.7764s-5.12012 11.7754 -11.7764 11.7754zM170.496 311.296v0c15.3604 0 27.6475 -11.7764 27.1357 -27.1357
c0 -14.8486 -12.2881 -27.1357 -27.1357 -27.1357s-27.1357 12.2871 -27.1357 27.1357c0 15.3594 12.2881 27.1357 27.1357 27.1357zM239.104 295.936c-6.65527 0 -11.7754 -5.11914 -11.7754 -11.7754s5.12012 -11.7764 11.7754 -11.7764
c6.65625 0 11.7764 5.12012 11.7764 11.7764s-5.12012 11.7754 -11.7764 11.7754zM239.104 311.296v0c14.8486 0 27.1367 -11.7764 27.1367 -27.1357c0 -14.8486 -12.2881 -27.1357 -27.1367 -27.1357c-14.8477 0 -27.1357 12.2871 -27.1357 27.1357
c0 14.8477 12.2881 27.1357 27.1357 27.1357z" />
    <glyph glyph-name="uniF15B" unicode="&#xf15b;" 
d="M0 364.544h216.576v-48.1279v-264.704v-48.1279h-216.576v48.1279v264.704v48.1279zM83.9678 340.48v-11.7764h48.1279v11.7764h-48.1279zM192.512 75.7764v216.575h-168.447v-216.575h168.447z" />
    <glyph glyph-name="uniF10E" unicode="&#xf10e;" 
d="M134.656 295.936h50.1758v-59.9033c7.24023 2.71289 19.3926 4.91406 27.125 4.91406c42.6758 0 77.3115 -34.6357 77.3115 -77.3115c0 -42.6768 -34.6357 -77.3125 -77.3115 -77.3125c-41.9482 0 -76.5791 34.04 -77.3008 75.9814v133.632zM211.456 192v0
c-8.72168 -0.307617 -19.2734 -6.72949 -23.5518 -14.3359l-3.07227 -6.65625c-0.510742 -1.94336 -0.925781 -5.15137 -0.925781 -7.16113c0 -15.5439 12.6152 -28.1602 28.1602 -28.1602c15.5439 0 28.1602 12.6162 28.1602 28.1602s-12.6162 28.1602 -28.1602 28.1602
c-0.168945 0 -0.442383 -0.00292969 -0.610352 -0.00683594z" />
    </font>
</defs>
</svg>
