<?xml version="1.0" encoding="utf-8"?>
<!-- Generator: Adobe Illustrator 16.0.4, SVG Export Plug-In . SVG Version: 6.00 Build 0)  -->
<!DOCTYPE svg PUBLIC "-//W3C//DTD SVG 1.1//EN" "http://www.w3.org/Graphics/SVG/1.1/DTD/svg11.dtd">
<svg version="1.1" id="Layer_1" xmlns="http://www.w3.org/2000/svg" xmlns:xlink="http://www.w3.org/1999/xlink" x="0px" y="0px"
	 width="600px" height="600px" viewBox="0 0 600 600" enable-background="new 0 0 600 600" xml:space="preserve">
<path fill="#FFFFFF" stroke="#7CC153" stroke-width="20.6303" stroke-miterlimit="10" d="M567.566,299.54
	c0,148.116-120.077,268.194-268.194,268.194c-148.115,0-268.193-120.078-268.193-268.194c0-148.116,120.078-268.194,268.193-268.194
	C447.489,31.346,567.566,151.424,567.566,299.54z"/>
<path fill="#7CC153" d="M298.914,508.574c0.018-1.044,0.035-2.686,0-5.27C298.88,505.889,298.897,507.53,298.914,508.574z"/>
<path fill="#7CC153" d="M292.727,458.938c-2.092-11.101-2.763-21.989-2.191-32.544c-9.972-31.593-28.994-62.795-64.342-82.463
	C145.44,298.996,70.5,294.075,68.426,247.724c-3.748,16.688-5.788,34.018-5.788,51.816c0,130.534,106.201,236.727,236.734,236.727
	c12.681,0,25.107-1.03,37.253-2.957C315.377,518.45,298.761,491.05,292.727,458.938z"/>
<path fill="#7CC153" d="M239.889,170.71c0,0,0.017,12.439,0.085,36.47c0.052,24.05,17.747,33.125,27.402,33.086
	c8.873,0,8.321,8.555,8.321,8.555s0.008,3.302,0.035,10.782c0.008,7.453,8.015,7.725,8.015,7.725l34.567-0.085
	c0,0,7.998-0.289,7.955-7.759c0-7.451,0-10.766,0-10.766s-0.595-8.566,8.278-8.583c9.673-0.023,27.318-9.189,27.259-33.229
	c-0.044-24.036-0.087-36.471-0.087-36.471s-0.118-8.865-11.438-8.856c-10.769,0.024-88.581-0.068-99.375-0.035
	C239.584,161.552,239.889,170.71,239.889,170.71z"/>
<path fill="#7CC153" d="M255.618,151.095l26.519-0.057l-0.094-41.731c0,0-0.026-11.046-13.284-11.021
	c-12.155,0.035-13.243,8.878-13.243,11.075C255.516,111.579,255.618,151.095,255.618,151.095z"/>
<path fill="#7CC153" d="M317.494,150.949l26.527-0.039l-0.086-41.749c0,0-0.017-11.042-13.275-11.016
	c-12.163,0.03-13.269,8.873-13.243,11.083C317.417,111.449,317.494,150.949,317.494,150.949z"/>
<path fill="#7CC153" d="M309.378,385.725v-97.505h-20.893v96.068c3.995,5.959,7.659,12.274,10.947,18.938
	C302.468,397.131,305.748,391.257,309.378,385.725z"/>
<path fill="#7CC153" d="M532.292,257.731c-0.604-3.345-1.226-6.689-1.965-9.981c-0.723,15.939-10.208,26.938-25.446,36.389
	c-29.043,18.019-79.358,30.325-132.318,59.792c-35.104,19.533-54.065,50.41-64.077,81.766c-0.452,2.022-0.885,4.045-1.275,6.128
	c0,2.677-0.672,13.327,0.815,22.15c5.694,33.887,25.948,62.708,49.136,73.256c24.868-5.679,48.174-15.402,69.389-28.244
	c65.811-42.081,109.549-115.712,109.549-199.447C536.099,285.262,534.739,271.313,532.292,257.731z"/>
</svg>
